<?xml version="1.0" encoding="UTF-8" standalone="no"?>
<!-- Created with Inkscape (http://www.inkscape.org/) -->

<svg
   version="1.1"
   id="svg1"
   width="840"
   height="879"
   viewBox="0 0 840 879"
   xmlns="http://www.w3.org/2000/svg"
   xmlns:svg="http://www.w3.org/2000/svg">
  <defs
     id="defs1" />
  <path
     style="display:inline;fill:#fefefe;fill-opacity:0.253012"
     d="m 40.209575,529.45723 1.402659,-23.7517 3.085851,-0.37404 0.280532,-4.30149 h 2.057234 l 1.122128,-23.7517 -8.602979,-2.43128 0.374043,-14.49415 12.249893,-10.66021 22.816596,0.46755 6.731268,-38.08787 -5.818736,-3.04161 -1.057953,-6.6122 -14.282353,0.39673 -19.704358,-6.34771 -5.950981,-0.79346 -12.166449,-2.11591 29.225927,-49.32701 0.396732,-47.74009 9.521569,2.51263 1.851416,-9.25708 11.769717,4.36406 6.479957,11.63747 51.707412,16.00152 42.9793,13.35665 0.13225,5.68649 19.43987,7.40567 -10.05055,19.57211 -3.83508,8.72811 -11.50523,11.10849 0.66122,4.4963 -22.87821,16.00152 -10.05054,49.856 7.27342,20.89455 -4.09957,13.75338 -16.92723,4.62854 -0.39673,12.95991 -72.601967,16.39826 z"
     id="1" />
</svg>
