<?xml version="1.0" encoding="UTF-8" standalone="no"?>
<!-- Created with Inkscape (http://www.inkscape.org/) -->

<svg
   version="1.1"
   id="svg1"
   width="840"
   height="879"
   viewBox="0 0 840 879"
   sodipodi:docname="district_map.svg"
   inkscape:version="1.4.2 (f4327f4, 2025-05-13)"
   xmlns:inkscape="http://www.inkscape.org/namespaces/inkscape"
   xmlns:sodipodi="http://sodipodi.sourceforge.net/DTD/sodipodi-0.dtd"
   xmlns="http://www.w3.org/2000/svg"
   xmlns:svg="http://www.w3.org/2000/svg">
  <defs
     id="defs1" />
  <sodipodi:namedview
     id="namedview1"
     pagecolor="#505050"
     bordercolor="#eeeeee"
     borderopacity="1"
     inkscape:showpageshadow="0"
     inkscape:pageopacity="0"
     inkscape:pagecheckerboard="0"
     inkscape:deskcolor="#505050"
     inkscape:zoom="0.66837315"
     inkscape:cx="-261.82979"
     inkscape:cy="69.571915"
     inkscape:window-width="2560"
     inkscape:window-height="1377"
     inkscape:window-x="1912"
     inkscape:window-y="-8"
     inkscape:window-maximized="1"
     inkscape:current-layer="g1" />
  <g
     inkscape:groupmode="layer"
     inkscape:label="Image"
     id="g1">
    <path
       style="fill:#fefefe;fill-opacity:0.253012"
       d="m 40.209575,529.45723 1.402659,-23.7517 3.085851,-0.37404 0.280532,-4.30149 h 2.057234 l 1.122128,-23.7517 -8.602979,-2.43128 0.374043,-14.49415 12.249893,-10.66021 22.816596,0.46755 6.731268,-38.08787 -5.818736,-3.04161 -1.057953,-6.6122 -14.282353,0.39673 -19.704358,-6.34771 -5.950981,-0.79346 -12.166449,-2.11591 29.225927,-49.32701 0.396732,-47.74009 9.521569,2.51263 1.851416,-9.25708 11.769717,4.36406 6.479957,11.63747 51.707412,16.00152 42.9793,13.35665 0.13225,5.68649 19.43987,7.40567 -10.05055,19.57211 -3.83508,8.72811 -11.50523,11.10849 0.66122,4.4963 -22.87821,16.00152 -10.05054,49.856 7.27342,20.89455 -4.09957,13.75338 -16.92723,4.62854 -0.39673,12.95991 -72.601967,16.39826 z"
       id="1"
       inkscape:highlight-color="#ff0000" />
    <path
       style="fill:#fefefe;fill-opacity:0.253012"
       d="m 136.87255,132.11177 7.8024,12.16645 15.73704,20.10109 15.3403,19.04314 13.48889,16.00152 13.62114,14.15011 9.52157,7.00893 19.50599,13.02604 44.83072,31.34183 1.78529,0.66122 7.73628,-5.75261 3.10773,-14.61297 9.52157,4.23181 15.40643,-8.59586 2.24815,-7.8024 7.67533,2.66025 50.84264,-23.88541 31.47408,-14.54684 10.97625,-3.70283 18.64641,-1.58693 18.38191,-0.39674 -12.95991,-44.43398 21.82026,-6.87669 -7.14117,-24.59739 4.36405,-1.58693 -4.4963,-17.059474 -6.21547,-0.132244 -3.83507,-17.323966 10.18279,-4.364053 -10.31504,-34.251199 -5.95098,0.396732 -6.87669,-16.927234 2.90937,-2.248148 L 429.79304,0 l -8.99259,0.66122007 -15.73704,0.92570813 -1.58693,12.5631808 -12.95991,-1.454684 -7.8024,4.231809 -1.19019,-6.876689 -8.72811,0.264488 -24.99412,13.092157 -13.88562,-14.6790851 -6.47995,24.9941181 -14.54685,2.512637 -12.29869,-1.586929 -4.23181,-22.74597 -23.40719,8.595861 -5.95098,-3.702832 -25.65534,14.150109 -15.47255,-1.851416 -9.25708,-24.7296306 -26.4488,-0.132244 -1.85142,3.7028324 -17.58845,-0.264488 -8.33137,16.1337692 -9.78606,-1.98366 10.31503,15.737038 -10.18278,-5.686493 -8.19913,7.802397 -14.81133,-5.422005 -1.05796,12.298694 -13.09427,7.218724 10.47319,17.112447 6.91979,13.839574 4.48851,10.847234 2.71181,6.919788 -2.33777,16.7384 -1.68319,11.59532 z"
       id="2"
       inkscape:highlight-color="#ff0000" />
    <path
       style="fill:#fefefe;fill-opacity:0.253012"
       d="m 42.734362,293.90394 18.795638,5.23659 2.524787,-9.25755 11.68883,3.92745 6.078192,11.87585 95.252921,29.55229 -0.13224,5.55425 19.8366,7.67015 25.30868,-41.84159 4.95606,2.52479 33.57032,-31.32606 2.05723,-8.79 8.69649,1.87021 5.04958,-6.1717 -23.28415,-16.17734 -50.02819,-34.69245 -8.17743,-8.08715 -36.36711,-43.11154 -21.22516,-28.73002 -1.45469,-2.94242 -8.06688,20.72924 -14.66597,3.13668 -3.36638,-7.57436 -2.52479,8.69648 -5.51713,-0.18702 -1.30914,-4.02095 -22.536068,6.07819 -9.920939,26.10546 -27.903487,-5.02527 v 3.57059 l 10.447277,15.86928 -5.818737,19.8366 -3.041612,11.1085 0.396732,43.50828 0.132244,20.76231 z"
       id="3"
       inkscape:highlight-color="#ff0000" />
    <path
       style="fill:#fefefe;fill-opacity:0.253012"
       d="m 276.38999,642.83815 60.17102,22.21699 1.98366,-5.02527 5.28976,0.39673 10.57953,-1.19019 7.93464,-2.11591 7.93464,-3.04161 6.47995,-3.3061 3.70284,-3.04161 3.70283,-3.83508 3.04161,-3.83508 1.71917,-3.43834 1.85142,-3.83508 1.05795,-2.1159 17.05948,16.5305 11.66561,-2.53986 14.86819,0.14027 -10.80048,-16.92543 20.6191,-17.39298 17.00804,-16.1796 4.69466,3.23997 8.46362,8.9926 13.88562,-1.05796 -0.13225,-14.28235 7.33955,-11.30686 0.39673,-8.26525 11.69748,-11.40252 -4.86255,-15.70978 -13.27851,-36.0016 -6.26521,-12.53042 -4.58203,-3.36639 -13.27851,-8.32244 -4.95606,-1.40266 -6.35872,-0.46756 -7.48085,0.8416 -8.79,0.56106 -10.00564,-1.49617 -6.63926,-1.12212 -2.15074,11.22127 -31.98064,5.42362 3.74042,11.78234 -5.98468,5.04957 -16.17734,-0.0935 -2.15074,10.66022 -12.53043,-0.28054 -15.70978,-20.75936 -28.70777,9.35107 -13.83958,8.22893 -25.80893,-3.92744 -7.85489,55.17127 6.1717,2.6183 2.05723,3.5534 2.43128,2.99234 0.74808,5.42362 v 8.79 l 1.68319,43.95 z"
       id="4"
       inkscape:highlight-color="#ff0000" />
    <path
       style="fill:#fefefe;fill-opacity:0.253012"
       d="m 173.10741,514.42921 7.00894,0.26449 2.77712,-5.95098 22.48148,-0.13225 3.70283,-0.9257 3.70284,-2.24815 1.58693,-10.44728 84.76841,-34.51569 6.34771,12.16645 5.15752,40.73116 -13.75338,8.33137 -25.91983,-4.09956 -8.06688,55.41024 -71.94075,-22.61373 -7.00893,-9.12483 -9.38932,-10.31504 z"
       id="5"
       inkscape:highlight-color="#ff0000" />
    <path
       style="fill:#fefefe;fill-opacity:0.253012"
       d="m 367.24162,420.27147 19.04314,29.35817 21.15904,27.639 16.43992,4.31115 10.19266,1.7767 8.97702,0.56106 4.76905,-0.37404 6.82627,-1.58968 h 4.11447 l 8.32245,3.27287 7.9484,4.30149 7.76139,5.89117 4.395,-5.70415 47.69042,-54.70372 10.84724,2.05723 12.15638,-23.56468 -6.73277,-3.5534 6.91979,-10.47319 -36.84319,-43.95 2.43128,-7.48085 -75.36958,1.87021 -6.1717,3.17936 -49.74766,27.49213 -10.84724,8.22893 -0.37404,19.2632 -5.42361,4.86255 z"
       id="6"
       inkscape:highlight-color="#ff0000" />
    <path
       style="fill:#fefefe;fill-opacity:0.253012"
       d="m 278.2414,266.2072 15.34031,22.87821 15.20806,40.59891 5.28976,18.77865 1.71917,5.6865 19.17539,31.8708 31.73856,34.2512 14.29645,-12.19104 0.37404,-19.63724 11.11709,-8.30777 47.74009,-26.1182 -49.92692,-21.21286 -25.15436,-10.37968 -8.88351,-6.73276 -13.65255,-3.55341 -22.06851,-54.98425 -6.35872,-16.55139 -14.21362,8.79 -10.47319,-3.08585 -2.33777,12.43692 z"
       id="7"
       inkscape:highlight-color="#ff0000" />
    <path
       style="fill:#fefefe;fill-opacity:0.253012"
       d="m 510.14729,347.76606 h 13.83957 l -2.66505,7.8549 36.88995,43.85649 -6.77952,10.37968 6.5925,3.41314 11.17452,-14.63442 6.45223,12.62394 41.51872,-13.93309 5.14309,8.13543 19.73074,-8.88351 2.99234,-5.04958 15.70979,-4.20798 -3.17936,-10.94074 4.395,-1.21564 5.2366,-6.1717 3.17936,-0.8416 3.27287,8.41596 5.61064,-3.17936 -2.71181,-20.1983 -24.5933,-0.37404 1.02862,-1.96372 7.20032,-4.58203 1.02861,-20.19829 -1.02861,-6.54575 -3.92745,-4.86255 -5.98468,-4.86255 -8.13543,-4.58203 -9.91212,-13.185 2.99234,-42.17329 -9.53809,-7.66788 -2.15074,-0.9351 -7.66788,2.89883 -5.42361,18.04755 -11.59532,3.27287 -15.24224,17.11245 -77.23978,19.07617 3.64691,14.86819 -8.79,2.05724 7.48085,23.93872 z"
       id="8"
       inkscape:highlight-color="#ff0000" />
    <path
       style="fill:#fefefe;fill-opacity:0.253012"
       d="m 310.82936,512.99936 28.05319,-8.88351 16.17734,20.94638 11.87586,0.0935 2.89883,-10.94075 15.99031,0.56106 5.42362,-5.14308 -3.27287,-11.59532 31.70011,-5.79766 2.7118,-10.75372 -15.80329,-4.11447 -14.58766,-19.07617 -8.50947,-12.99798 -14.21362,-21.50745 -5.79766,-6.1717 -11.87585,-13.37202 -8.41596,-9.35106 -7.76138,-8.13543 -8.50947,-14.30713 -9.35106,-15.42925 -3.08585,-5.70415 -1.12213,-3.83394 -17.11245,8.13543 -40.58361,1.58968 1.30914,12.90447 2.43128,5.23659 23.09713,40.20958 2.99234,8.88351 11.31479,30.01691 2.52478,6.45224 5.89117,10.84723 0.8416,7.38734 z"
       id="9"
       inkscape:highlight-color="#ff0000" />
    <path
       style="fill:#fefefe;fill-opacity:0.253012"
       d="m 315.60034,240.94859 c 0,-0.79346 0.66122,-8.52974 0.66122,-8.52974 l 7.73627,3.43835 c 0,0 21.48965,-10.11667 23.34107,-10.91013 1.85142,-0.79347 57.09461,-26.79803 57.09461,-26.79803 l 6.45224,-2.6183 8.32244,-2.24425 4.48851,-0.56106 30.765,-0.74809 4.86256,14.86819 -5.04958,1.87022 7.57436,19.16968 1.68319,3.74042 11.68883,18.4216 6.73277,11.68883 5.79766,0.28053 11.96936,38.61989 6.73277,1.12213 3.64691,14.30713 -8.88351,2.89883 7.66787,23.84521 1.30915,4.95606 -61.62351,1.77671 -5.51713,2.99234 -3.27287,0.65457 -64.52234,-26.37 -10.94074,-4.95606 -4.30149,-4.11447 -3.27287,-1.96372 -13.93309,-3.83394 -9.16404,-23.47117 -12.34341,-30.11043 -6.26521,-15.8968 z"
       id="10"
       inkscape:highlight-color="#ff0000" />
    <path
       style="fill:#fefefe;fill-opacity:0.253012"
       d="m 10.844009,601.71026 21.291286,-12.03421 1.98366,25.78759 61.757954,-0.39674 2.909369,-7.80239 19.704362,-0.13225 -0.13225,-3.83507 9.78606,-0.26449 8.59586,-22.87821 1.98366,-5.95099 -2.77712,-0.66122 -6.21547,5.6865 -31.738566,-20.76231 -0.132244,-7.8024 -36.89608,-25.65534 -16.894173,3.80202 -4.132625,0.72734 -11.108497,-0.0661 -14.48072,3.33916 -4.62854,2.711 -5.2236386,3.96732 -2.5787582,3.63671 -1.58692817,3.96732 -0.13224401,6.6122 0.59509806,2.90937 2.97549032,7.93464 3.0416123,7.53791 2.7110022,6.54608 1.6530501,3.57059 0.925708,2.57876 -0.06612,1.85141 c 0,0 -0.264488,2.84325 -0.396732,3.10774 -0.132244,0.26448 -1.719172,5.02527 -1.719172,5.02527 l -1.7852942,4.76078 z"
       id="11"
       inkscape:highlight-color="#ff0000" />
    <path
       style="fill:#fefefe;fill-opacity:0.253012"
       d="m 280.53192,864.69287 7.66787,2.6183 56.48042,-4.02096 0.46756,-8.04191 31.98063,-0.65458 11.87586,-14.21361 0.0935,-5.2366 5.89117,-2.99234 12.99798,13.46553 58.25712,33.28979 3.17936,-0.56106 4.48852,-4.20798 6.35872,-10.94075 8.13542,-8.22893 3.36639,1.49617 8.69649,0.37404 11.50181,-1.96372 -1.87022,-8.88351 -51.05681,-90.33128 -10.84723,-0.56106 -9.67534,-26.30165 5.95098,-5.02528 -44.96297,-73.79216 8.86035,-3.04161 -16.13377,-15.86928 -5.55425,9.12484 -4.89302,6.08322 -4.23181,3.17386 -7.40567,4.36405 -9.78605,3.83508 -8.06689,1.45468 -11.1085,0.66122 -2.77712,0.26449 -1.45468,4.36405 -59.84042,-21.22516 5.422,96.53813 -10.18278,-1.12408 -3.83508,8.13301 6.81057,3.3061 -13.48889,19.04314 1.85141,17.85294 7.27342,12.36482 14.21623,-0.39674 -8.76676,12.31871 6.26521,13.185 -7.9484,12.62393 5.70414,3.92745 -3.36638,18.14107 6.07819,0.18702 z"
       id="12"
       inkscape:highlight-color="#ff0000" />
    <path
       style="fill:#fefefe;fill-opacity:0.253012"
       d="m 511.32148,579.06347 -1.58693,-17.55539 -1.02489,-2.67794 -17.5554,-49.22784 -6.6122,-13.95174 -0.72734,-1.38856 10.91013,-12.76155 40.26831,-46.21928 10.77788,2.04978 7.60403,-14.34847 5.22364,-9.65382 10.57952,-13.8195 6.54608,12.03421 41.39238,-13.8195 5.15751,7.93464 20.10109,-8.92647 2.84325,-4.89303 16.39826,16.5305 9.13501,8.96847 16.45787,10.5667 9.81862,0.74809 5.42362,0.0935 13.65255,13.46553 -7.66787,5.33011 1.12212,26.08946 8.13543,12.71745 3.08585,3.27287 4.86255,1.68319 1.49617,3.55341 0.28054,18.32808 8.32244,3.74043 -5.23659,9.81862 0.9351,21.03989 50.30873,-2.24426 53.95564,42.82788 -5.51713,6.63925 -5.33011,-0.9351 -3.08585,3.92744 10.47319,18.4216 v 6.45223 l 7.20032,3.36639 -0.0935,10.19266 -11.12777,2.89883 -2.05723,7.20031 -6.54574,2.05724 -4.48851,9.7251 4.95606,9.72511 -8.88351,10.37968 17.39298,14.9617 -12.34341,16.36437 -18.88915,-13.65256 4.11447,-5.3301 -30.11042,-20.38532 -38.33937,25.62191 -55.54531,10.00564 -1.30915,-4.02096 -24.40628,6.63926 -0.0935,8.04191 -26.18298,4.76905 -47.31638,-72.56426 -27.11809,-31.51308 -17.20596,-12.81096 -21.22691,-23.19064 z"
       id="13"
       inkscape:highlight-color="#ff0000" />
    <path
       style="fill:#fefefe;fill-opacity:0.253012"
       d="m 657.78172,376.49871 4.43018,-0.99183 5.22363,-6.21547 2.64488,-0.52898 3.37223,8.19913 6.14934,-3.57059 -2.1159,-17.98518 122.85469,-25.58922 -3.70284,30.15163 3.62611,1.2634 -1.40266,24.6868 -29.26883,1.12213 3.08586,7.10681 -6.17171,-0.46755 5.61064,6.07819 -1.02862,2.71181 -0.46755,14.86819 5.89117,1.40266 5.89117,-0.74809 6.54575,-2.24425 5.79766,-3.36638 2.43127,-0.8416 4.20798,0.65457 -1.40266,12.99798 -6.1717,11.50181 1.12213,21.975 23.7517,40.67713 1.30915,3.45989 -15.61628,2.43128 -5.70415,3.64691 -4.48851,4.86256 -0.46755,5.3301 1.40266,3.36639 2.89883,4.11447 -8.88351,4.02095 -3.17936,5.79766 v 6.1717 l -4.02096,2.80532 -50.21521,2.15075 -1.02862,-20.66585 5.33011,-10.00564 -8.32245,-3.92745 0.0935,-18.23457 -1.87021,-3.83394 -5.14309,-1.21564 -10.94074,-15.99032 -1.12213,-25.90244 7.76138,-5.42362 -13.74606,-13.93309 -15.42926,-0.65457 -16.55138,-10.75372 -25.24787,-25.15436 15.52276,-4.395 z"
       id="14"
       inkscape:highlight-color="#ff0000" />
    <path
       style="fill:#fefefe;fill-opacity:0.253012"
       d="m 399.50916,649.64871 8.79423,-2.18202 10.38116,-2.18203 17.39008,-0.33061 -11.37298,-16.5305 33.6875,-29.02036 3.17936,-5.04957 5.89117,3.5534 8.04192,8.69649 14.40063,-0.74808 -0.65457,-13.65256 7.20032,-12.53042 0.37404,-7.10681 11.68883,-12.62394 0.8416,1.58968 1.87021,17.67351 2.43128,4.02096 6.91978,7.57436 7.38734,8.22894 5.42362,5.42362 17.39298,12.90446 26.93106,31.23256 47.87745,73.31234 -17.39298,5.98468 2.6183,6.35872 -0.18702,3.17936 -2.05724,1.49617 h -3.36638 l -2.24425,-0.18702 -6.73277,16.08383 -12.43263,5.12235 0.13224,6.67832 -4.89303,1.25632 -4.29793,15.34031 0.13225,6.14934 -7.8024,-0.19836 -8.92647,-9.12484 -5.35589,8.19913 -3.37222,8.99259 0.33061,5.88486 -24.92799,19.63824 2.64488,7.00893 -17.05948,15.67092 -50.88449,-89.12194 -11.4083,-1.49617 -5.98468,-19.07617 -3.64692,-6.73276 6.73277,-4.95607 -31.41263,-50.26962 -12.2987,-20.36558 z"
       id="15"
       inkscape:highlight-color="#ff0000" />
    <path
       style="fill:#fefefe;fill-opacity:0.253012"
       d="m 282.1426,739.17791 -9.71993,-1.25632 -4.29793,7.86852 -13.09216,-11.70359 -3.63671,0.33061 c 0,0 -20.89456,-10.97626 -21.55578,-11.50523 -0.66122,-0.52898 -21.88638,-16.39826 -21.88638,-16.39826 l 1.78529,-10.18279 -12.56318,-1.05795 -36.52454,-19.56503 1.87021,-5.23659 -13.83957,-7.66788 2.05723,-4.67553 -8.22894,-8.79 -3.36638,0.18702 -0.18702,-21.69446 -16.83192,-6.17171 17.06193,-47.58746 -3.57058,-0.85958 -5.75262,5.48812 -31.606318,-20.29945 -0.396732,-8.00077 -36.367104,-25.39085 62.948154,-14.67908 0.79346,-4.23181 17.58845,5.15751 -1.32244,3.70284 1.05796,4.49629 1.85141,3.04162 2.38039,0.9257 3.70284,-0.66122 15.20806,-7.80239 7.27342,0.26448 1.1902,15.86929 17.05947,19.96884 65.46079,20.63007 10.84401,3.57059 2.77712,2.51263 2.77713,4.76079 0.26449,4.76078 0.39673,3.43835 1.98366,51.70741 1.12407,1.58692 2.44652,42.45033 2.38039,45.02909 z"
       id="16"
       inkscape:highlight-color="#ff0000" />
    <path
       style="fill:#fefefe;fill-opacity:0.253012"
       d="m 125.36732,505.70111 0.0661,-8.13301 16.86111,-4.82691 3.96732,-14.01786 -7.27342,-20.76231 9.98442,-49.72375 22.87822,-16.00153 -0.52898,-4.36405 11.43911,-11.30686 4.16568,-9.19096 18.11743,5.15752 15.07582,4.49629 35.11079,-19.50599 1.25631,12.82767 25.78759,45.42582 16.46438,44.43399 -84.70229,34.58181 -1.38857,10.57952 -3.63671,2.04978 -3.43834,1.05795 -23.01046,0.13224 -1.65305,2.71101 -1.13561,3.26756 -7.15356,-0.28053 -0.14027,0.56107 -7.38734,-0.37405 -14.58766,7.8549 -3.17936,0.51431 -2.71181,-0.51431 -1.07537,-1.82346 c 0,0 -0.98186,-2.47803 -1.02862,-2.71181 -0.0468,-0.23378 -0.60782,-2.94558 -0.60782,-2.94558 l 1.54293,-3.69367 z"
       id="17"
       inkscape:highlight-color="#ff0000" />
    <path
       style="fill:#fefefe;fill-opacity:0.253012"
       d="m 187.52201,366.91101 32.86264,9.98443 35.17691,-20.03497 40.99564,-1.71917 16.79499,-7.93464 -6.94281,-22.8121 -12.82767,-34.91242 -16.86111,-24.00228 -5.15752,5.81873 -8.86035,-1.85141 -1.91754,8.99259 -33.6561,31.14346 -5.22364,-2.44651 -25.98594,43.24379 -8.59587,15.40643 z"
       id="18"
       inkscape:highlight-color="#ff0000" />
  </g>
</svg>
