<?xml version="1.0" encoding="UTF-8" standalone="no"?>
<!-- Created with Inkscape (http://www.inkscape.org/) -->

<svg
   version="1.1"
   id="svg1"
   width="840"
   height="648"
   viewBox="0 0 840 648"
   xmlns="http://www.w3.org/2000/svg"
   xmlns:svg="http://www.w3.org/2000/svg">
  <defs
     id="defs1" />
  <g
     id="g1">
    <path
       style="fill:#0000fe;fill-opacity:0.253012"
       d="M 139.94043,97.475745 135.11489,77.208511 127.80766,60.66383 118.57021,46.049362 105.61021,34.74383 93.615319,28.125957 81.89617,24.12766 69.901277,21.23234 63.834894,20.956596 59.147234,21.23234 V -0.41361702 L -0.13787234,40.534468 0,42.602553 56.52766,82.861277 58.733617,82.585532 V 59.147234 l 11.581277,0.137872 14.338723,1.930213 9.513192,2.481702 11.167661,3.584681 8.13447,4.68766 10.06468,6.617872 6.20425,5.652766 4.96341,6.204255 3.03319,4.963405 z"
       id="back" />
    <path
       style="fill:#0000fe;fill-opacity:0.253012"
       d="m 528.05106,622.76936 v -48.39319 l 1.65447,-6.89362 3.30894,-5.23915 4.41191,-3.86042 4.27405,-1.79234 4.54978,-1.37872 h 271.05702 l 5.37703,2.61957 4.13617,4.41191 3.17106,5.10128 1.93021,4.13617 0.27575,2.34383 v 45.36 l -0.96511,5.37702 -3.17106,5.79064 -3.30894,3.44681 -4.27404,3.17106 -4.27404,1.5166 -3.86043,0.41362 H 545.97447 l -7.30724,-2.06809 -3.99829,-3.03319 -4.27405,-5.10128 z"
       id="0" />
    <path
       style="fill:#0000fe;fill-opacity:0.253012"
       d="m 757.4017,46.876596 -34.53702,36.467234 -8.41021,13.994042 -14.06298,27.022978 -4.61872,7.30724 -7.78979,9.9268 -12.96,11.78809 -16.82043,8.75489 -67.62638,15.02809 -18.33702,4.75659 4.34298,8.96171 -6.65286,23.88724 3.89962,4.97201 -2.53475,4.38707 14.81855,13.06373 3.11969,6.82433 4.77704,3.89962 1.26737,5.16699 -2.14479,2.82723 6.92182,8.38418 5.84943,9.74904 1.16989,7.99422 -7.40928,18.71817 2.42465,8.90319 0.27575,6.89361 5.65276,6.20426 4.68766,16.82042 -2.06808,19.71575 -8.41022,16.13106 3.9983,3.03319 2.34383,23.57618 -1.79234,3.58468 2.61958,2.34383 1.65446,5.10127 13.78724,19.57787 4.13617,-2.75744 0.27574,-3.44681 22.19745,-19.71575 -1.37872,-2.06808 27.16085,-24.67915 h 3.44681 l 53.77021,38.46638 0.27574,4.41192 1.24085,1.10298 26.47149,-3.17107 5.10128,-2.20595 -1.93021,-7.03149 1.10298,-4.82554 -2.06809,-5.65276 2.61958,-11.71915 1.65446,-6.89362 2.75745,-4.68766 -1.5166,-3.17106 9.09958,-11.85702 8.9617,-2.20596 6.06638,-4.13617 6.75575,-15.57957 0.41362,-6.48 -0.41362,-9.5132 -2.61958,-5.79063 0.55149,-7.58298 6.61788,-10.34043 7.99659,-7.4451 7.85873,-1.93022 3.4468,-4.13617 1.5166,-6.61787 11.02979,-9.92681 -3.58468,-21.09447 -1.93022,-77.07063 -10.75404,-41.9132 L 809.03489,108.36766 793.0417,81.068936 771.67149,57.768511 Z"
       id="36" />
    <path
       style="fill:#0000fe;fill-opacity:0.253012"
       d="m 541.01106,27.988085 -7.58297,20.267234 5.79063,3.998298 5.5149,8.410213 17.64766,105.33447 2.61957,1.37872 11.16766,23.57617 -6.61787,23.85192 4.13617,5.23915 -2.75745,4.54978 14.89022,12.82213 3.03319,6.89362 5.10127,3.86042 0.96511,4.68766 -2.20596,3.30894 7.03149,8.41021 5.79064,9.37532 1.10298,8.41021 -7.58298,18.88851 -23.30043,-2.06808 -40.81021,-8.68596 -12.96,-1.93021 h -9.09957 l -62.04256,8.82383 6.48,-18.33702 7.58298,-18.61277 7.44511,-14.75234 6.75574,-9.51319 -8.9617,-21.9217 -6.34213,-30.60766 -15.99319,-99.130215 -5.92851,-32.124256 6.75575,-0.275744 9.37532,-3.446809 2.75744,8.410213 36.26043,-9.513192 -3.03319,-8.961702 5.79063,0.413617 z"
       id="37" />
    <path
       style="fill:#0000fe;fill-opacity:0.253012"
       d="m 140.48376,332.92994 2.35198,119.56708 8.27235,0.82724 13.78723,1.10297 11.02979,-1.10297 7.72085,-2.89532 29.36681,-14.75234 12.68425,-3.0332 30.33192,-0.82723 14.75234,9.09958 19.44,1.93021 64.93787,19.99149 -1.93021,-5.5149 -0.27575,-4.27404 -3.58468,-3.44681 -0.96511,-4.68766 -4.54978,-2.75744 0.13787,-6.20426 -12.27064,-21.23234 -3.72255,-3.17106 -1.65447,-15.57958 -3.17106,-3.72255 3.03319,-4.41192 -5.37702,-5.51489 -2.89532,-24.54128 -0.68936,-5.92851 5.51489,-7.30723 -2.89532,-7.72085 3.58468,-3.9983 -4.54979,-6.06638 2.34383,-4.54979 -39.70723,-0.13787 -40.12085,9.37532 z"
       id="38" />
    <path
       style="fill:#0000fe;fill-opacity:0.253012"
       d="m 624.49277,432.85021 -14.06298,-19.50893 -1.37873,-5.17022 -2.75744,-2.27489 1.86127,-4.06723 -2.27489,-23.16256 -4.06723,-3.17106 8.61702,-16.26894 1.86127,-19.6468 -4.68765,-16.61362 -5.92852,-6.41107 0.0689,-7.23829 -2.4817,-7.85873 -23.98979,-1.86127 -53.5634,-10.75405 -8.89277,0.20681 -62.11149,8.61702 -4.54979,22.74894 104.37378,162.065 6.61346,2.07202 -0.27575,-4.06723 11.9949,-6.75575 4.2051,6.68681 21.92171,-12.40851 5.44595,-10.20255 9.03064,-5.17022 4.61873,-6.41106 3.58468,1.24085 1.24085,-9.44425 z"
       id="39" />
    <path
       style="fill:#0000fe;fill-opacity:0.253012"
       d="m 541.56255,28.125957 -7.72085,20.129362 5.65277,3.446809 5.51489,8.961702 17.92341,105.61021 2.4817,1.10298 6.75574,13.78724 86.17022,-19.44 16.68255,-8.68596 13.51149,-12.40851 7.16936,-9.51319 4.13617,-6.06639 13.78723,-27.022976 8.96171,-15.165957 34.74383,-36.398298 -16.54468,-11.16766 -21.78383,-12.684255 h -5.65277 L 679.29702,10.754043 663.71745,8.4102128 627.18128,6.2042553 588.99064,5.9285106 565.96596,2.2059574 557.83149,1.9302128 Z"
       id="40" />
    <path
       style="fill:#0000fe;fill-opacity:0.253012"
       d="m 318.62298,358.19234 -1.10298,-6.34213 5.65277,-6.89361 -3.30894,-7.9966 3.9983,-4.13617 -4.27404,-6.06638 1.93021,-4.41192 -1.37873,-21.9217 -1.51659,-2.34383 1.65447,-3.30894 -3.30894,-15.57957 10.4783,-13.64936 -0.41362,-10.89192 -3.44681,-3.99829 -5.23915,-1.65447 -1.51659,-3.58468 3.86042,-8.54809 -0.9651,-5.37702 -12.40851,-3.44681 -0.68936,-2.34383 2.06808,-5.79064 -5.65277,-3.17106 -7.16936,-0.82723 -1.37872,-2.06809 2.89532,-1.37872 0.13787,-5.92851 -1.51659,-3.9983 1.65446,-4.82553 -4.41191,-6.61788 0.82723,-4.68766 12.68426,-3.17106 2.34383,-3.30894 -0.68936,-6.20425 -2.34383,-2.61958 -4.82554,-0.9651 -0.27574,-2.61958 3.58468,-2.61957 0.41362,-3.86043 -1.37873,-3.17106 -0.9651,-1.24085 3.86042,-3.17106 -0.55149,-4.82554 -13.9251,-2.61957 -1.93022,-3.86043 -0.55148,-3.72255 1.24085,-2.34383 5.37702,-1.93021 4.82553,-1.10298 2.4817,-2.34383 -0.13787,-3.86043 -0.68936,-3.44681 1.65447,-3.99829 -6.34213,-12.13277 -1.93021,-6.89362 -4.54979,-5.239145 -1.5166,-4.963404 1.24085,-7.307234 6.61788,17.234043 5.51489,11.30553 6.06638,9.09958 7.9966,10.06468 7.4451,4.82553 9.92681,0.82723 8.27234,-3.03319 20.12937,2.06809 9.65106,-30.05617 58.73362,-1.10298 0.27574,-5.101279 15.85532,-14.890213 15.85532,101.198302 6.34213,29.64255 8.82383,21.37021 -7.9966,11.44341 -7.30723,14.61446 -12.82213,34.88171 -18.88851,2.4817 -24.9549,12.68425 -24.81702,10.75405 -18.61276,10.20255 -31.57277,5.51489 -3.72255,3.72256 -2.06809,5.92851 -0.9651,3.86042 -1.93022,2.20596 z"
       id="41" />
    <path
       style="fill:#0000fe;fill-opacity:0.253012"
       d="m 426.4233,488.62222 -9.26159,-2.72973 2.82722,3.70464 -0.77992,9.55406 -4.28958,13.74616 -27.5898,36.36394 -22.5203,13.45369 -24.17764,11.89383 -11.69885,2.24228 -14.13612,-9.1641 -14.13612,-0.58494 0.0975,4.97201 -5.65445,0.0975 -5.16699,4.87452 0.77992,3.02221 -18.23071,-0.19498 -15.59848,-6.23939 3.60715,10.62646 -7.11681,11.2114 -2.43726,9.74905 -10.72395,-6.33688 -5.75194,0.29247 -0.29247,-8.96912 -24.17763,1.26737 -3.99711,-15.20851 -21.64289,-10.72395 -3.99711,9.45657 -71.46051,-27.78478 28.17475,-74.87268 0.58494,-14.3311 5.16699,-5.36197 22.22783,2.0473 11.69886,-1.16989 36.16896,-17.3533 12.77125,-3.21719 30.51452,-0.87741 14.3311,9.1641 19.59558,1.94981 65.22112,20.18053 21.4479,3.41217 49.72014,19.4006 z"
       id="42" />
    <path
       style="fill:#0000fe;fill-opacity:0.253012"
       d="m 43.154043,537.56426 -1.516596,-4.82554 -3.998298,-2.06808 -0.827234,-3.30894 -1.910328,-200.96362 29.442121,7.40928 75.262642,-0.97491 2.92471,119.52332 -5.65444,5.65444 -0.38997,14.91605 -28.36972,74.67769 -8.286692,0.97491 -52.352381,-22.03285 -3.704637,6.92183 z"
       id="43" />
    <path
       style="fill:#0000fe;fill-opacity:0.253012"
       d="m 141.31915,258.23489 -25.40298,-143.39112 1.85231,-4.38707 131.22217,-39.093678 0.87742,-2.729733 15.89094,-5.166995 6.62935,6.23939 0.87742,-3.607147 h 1.94981 l 15.11102,16.86585 -1.07239,7.116804 1.85231,5.849429 4.67955,4.48456 1.46235,7.01931 6.62936,12.08882 -1.75483,4.19209 0.87741,6.82434 -2.14479,2.14479 -10.62646,3.11969 -1.26738,2.63224 0.48746,3.80213 2.33977,4.38707 13.74615,2.43726 0.58495,4.38708 -3.60715,2.82722 0.29247,1.85232 1.55985,2.14479 -0.0975,4.58205 -4.0946,2.53475 0.77992,3.02221 5.06951,0.87741 2.0473,2.43726 0.58494,6.04441 -2.14479,3.21719 -12.67376,3.21718 -0.97491,5.06951 4.48456,6.53186 -1.75482,4.97201 1.55984,3.89962 v 5.55696 l -3.21718,1.65733 -2.33977,-0.48745 -1.65734,-3.21718 -2.63224,0.48745 -0.48746,-2.14479 -16.96334,3.0222 -2.82722,5.65445 -73.80028,21.05794 z"
       id="44" />
    <path
       style="fill:#0000fe;fill-opacity:0.253012"
       d="m 355.54773,462.68976 -2.0473,-5.06951 0.19498,-4.67954 -3.70463,-3.21719 -0.87742,-4.87452 -4.97201,-2.82722 0.29247,-6.23939 -12.38129,-20.96045 -3.41217,-3.31468 -1.75482,-15.59847 -3.02221,-3.41217 2.92472,-4.38707 -5.26449,-5.75194 -2.63224,-23.69018 6.62935,-6.1419 2.82722,-9.65156 3.70464,-3.80213 31.58691,-5.45946 18.03574,-10.13901 50.1101,-23.39771 18.32821,-2.24228 -4.28958,22.32531 104.70035,162.67025 6.61787,2.20595 v 5.65277 l 33.50298,49.63404 -3.44681,5.10128 -5.92851,-1.79234 -6.34213,1.10298 -23.30043,-5.79064 h -19.57787 l -7.03149,3.58468 -31.15915,4.82553 -54.73532,-52.94298 -12.82212,-5.65276 0.55149,-3.03319 L 376.80511,466.56 Z"
       id="45" />
    <path
       style="fill:#0000fe;fill-opacity:0.253012"
       d="m 140.19129,332.345 -2.0473,-59.95664 3.50966,-14.2336 51.76744,-19.40061 73.89777,-21.25292 3.0222,-5.65445 15.79346,-3.0222 1.36487,2.33977 2.33977,-0.48745 1.36486,3.11969 2.92472,0.58495 2.14479,2.33977 6.53186,0.38996 5.45947,2.92471 -2.0473,5.94692 0.58494,2.43726 12.67376,3.31468 0.87741,5.26449 -4.0946,8.48167 1.75483,3.60714 5.65445,1.94981 3.1197,3.70464 0.29247,10.52897 -10.52897,14.23361 3.41216,15.20851 -1.85232,3.70464 1.75483,2.0473 1.36487,21.54539 -39.8736,-0.29247 -40.84851,9.55407 z"
       id="46" />
    <path
       style="fill:#0000fe;fill-opacity:0.253012"
       d="m 34.881702,325.93021 29.780426,7.58298 75.278302,-1.24085 -2.48171,-60.38808 3.58468,-13.51149 -25.64425,-143.38724 1.79234,-5.23915 L 44.670638,97.2 3.5846809,290.22128 l 7.7208511,2.4817 8.410213,7.03149 9.513191,11.71915 0.55149,4.27404 3.171063,1.5166 z"
       id="47" />
  </g>
</svg>
