<?xml version="1.0" encoding="UTF-8" standalone="no"?>
<!-- Created with Inkscape (http://www.inkscape.org/) -->

<svg
   version="1.1"
   id="svg1"
   width="728"
   height="879"
   viewBox="0 0 728 879"
   xmlns="http://www.w3.org/2000/svg"
   xmlns:svg="http://www.w3.org/2000/svg">
  <defs
     id="defs1" />
  <g
     id="g1">
    <path
       style="fill:#0000fe;fill-opacity:0.253012"
       d="M 726.20362,103.23574 721.52809,82.289362 714.79532,66.579575 704.13511,50.308723 691.04362,38.339362 674.58575,29.923404 660.74617,25.434894 641.67,23.938723 V 2.2442553 L 639.23872,1.4961702 578.83085,43.762979 v 2.99234 l 59.84681,42.45383 2.43128,-0.374043 V 63.961277 l 15.14872,0.748085 21.88149,3.927447 12.15638,4.301489 10.28617,5.423617 7.48085,5.79766 6.54575,5.98468 5.79766,5.79766 3.92745,5.423615 z"
       id="back" />
    <path
       style="fill:#0000fe;fill-opacity:0.253012"
       d="m 440.90154,859.58609 v -47.21112 l 1.98366,-6.74444 3.43834,-4.23181 4.89303,-3.57059 4.23181,-1.71917 h 253.37953 l 5.28976,1.85141 4.36405,3.30611 4.23181,5.68649 1.71917,6.47995 v 45.22746 l -2.64488,7.53791 -4.49629,4.36405 -7.93464,3.96732 H 456.63858 l -6.74445,-2.38039 -5.15751,-4.36406 -2.51264,-3.83507 z"
       id="0" />
    <path
       style="fill:#0000fe;fill-opacity:0.253012"
       d="m 127.48323,506.09784 53.69107,-25.65534 55.278,-23.01046 75.11459,-36.89608 38.21852,-16.92723 11.50523,-1.1902 17.7207,-6.47995 12.82767,8.19912 53.42658,21.82027 14.4146,8.7281 83.44597,35.17691 4.4963,3.83507 -56.60044,42.97931 -18.38192,21.29129 -10.84401,10.57952 -8.99259,5.95098 -44.69848,22.48148 -40.8634,27.77124 -6.47995,-1.45468 -11.50523,9.65381 -3.04161,0.13224 -70.48606,49.98824 -23.40719,14.54684 -17.05948,14.15011 -25.65534,-39.6732 z"
       id="58" />
    <path
       style="fill:#0000fe;fill-opacity:0.253012"
       d="M 3.0416123,108.83682 17.45621,97.596082 13.488889,92.570809 14.546841,81.7268 30.019391,68.502399 30.416123,46.153161 26.184315,40.598912 32.664271,26.581047 44.83072,24.861874 l 9.521569,15.47255 4.099565,1.586928 7.537909,12.430937 12.959913,-9.918301 3.702832,5.686493 10.447277,-1.98366 52.368625,-26.713291 11.63748,-11.108497 3.43834,-8.5958608 1.32244,6.7444446 69.29163,209.6031932 38.355,105.66653 7.67015,12.69543 14.01787,13.2244 8.99259,5.02527 32.79651,7.40567 10.57953,6.87669 35.1769,26.97777 -17.25784,6.21547 -12.03421,1.25632 -38.02015,17.05948 -74.45338,36.56547 -59.87212,24.91852 -49.93468,23.7517 L 114.27,475.96915 85.842766,354.77936 82.850426,331.96277 80.793192,303.53553 73.125319,251.73064 59.098723,198.99064 45.44617,170.18936 20.759362,130.54085 10.847234,117.26234 Z"
       id="59" />
    <path
       style="fill:#0000fe;fill-opacity:0.253012"
       d="m 235.79108,692.29741 16.26601,-13.62113 94.42222,-65.1963 3.43835,-0.39674 10.84401,-9.25708 7.27342,1.05796 40.20218,-27.639 32.39978,34.11895 3.96732,-1.45468 17.98519,37.95403 16.79499,18.91089 -5.95098,5.15752 -4.36406,0.66122 -1.85141,2.64488 -8.19913,5.28976 -5.55425,9.38933 1.85142,2.1159 -4.76079,4.09956 -2.1159,-0.9257 -5.15752,11.76971 -1.98366,12.69543 -1.32244,48.26906 -0.26449,10.84401 -2.90936,8.86035 -6.34772,10.18279 -9.25708,10.57952 -5.55425,4.23181 0.39674,3.96732 -3.30611,1.58693 -16.5305,13.75338 -15.73703,12.69542 -29.49042,-35.97037 -68.57348,-67.3198 -28.80128,-26.93106 z"
       id="60" />
    <path
       style="fill:#0000fe;fill-opacity:0.253012"
       d="m 547.88695,474.09479 -56.73269,42.71481 -17.19172,20.63007 -11.37298,11.24074 -9.25708,6.08322 -44.30175,22.74598 31.20959,33.32549 4.89303,-1.45469 17.7207,38.48301 16.66274,18.51416 37.42506,-22.34924 8.59586,-2.51263 1.45468,-3.43835 16.00153,-0.26448 3.70283,-8.59587 3.57059,0.52898 11.76972,-7.67015 20.49782,-14.67909 39.40871,-22.48148 11.50523,-16.13377 7.93464,-8.7281 13.88562,-5.42201 28.8292,-4.36405 32.13529,-10.97625 -85.0329,-32.92876 -73.65991,-33.06101 -3.17386,2.77713 z"
       id="61" />
  </g>
</svg>
