<?xml version="1.0" encoding="UTF-8" standalone="no"?>
<!-- Created with Inkscape (http://www.inkscape.org/) -->

<svg
   version="1.1"
   id="svg1"
   width="840"
   height="693"
   viewBox="0 0 840 693"
   xmlns="http://www.w3.org/2000/svg"
   xmlns:svg="http://www.w3.org/2000/svg">
  <defs
     id="defs1" />
  <g
     id="g1">
    <path
       style="fill:#0000fe;fill-opacity:0.253012"
       d="M 167.35213,116.92532 164.1083,99.821489 157.76809,80.653404 151.13298,67.530638 143.3183,57.356809 132.55468,46.445745 123.26553,40.400426 109.11064,33.617872 97.904681,29.636809 89.500213,28.309787 80.063617,26.982766 72.98617,26.687872 V 3.5448617 L 70.897234,1.4596489 2.5022553,49.419543 v 3.544861 L 70.27167,100.50726 72.982447,99.881691 V 71.731319 l 18.349872,1.042606 15.013531,2.293735 11.67719,3.753383 11.88572,4.587468 10.8431,5.838595 10.84311,9.174937 6.8812,6.464157 5.21303,6.04712 z"
       id="back" />
    <path
       style="fill:#0000fe;fill-opacity:0.253012"
       d="m 834.99128,672.35745 v -46.88809 l -0.88468,-4.86574 -2.80149,-5.01319 -3.83362,-4.12851 -4.12851,-2.35915 -3.83362,-0.44234 H 565.7534 l -4.86574,1.03212 -5.16064,2.65405 -2.80149,3.24383 -2.35915,3.68617 -1.62191,4.27595 -1.03213,3.83362 v 43.05447 l 1.47447,4.7183 2.65404,5.30808 4.42341,4.27596 5.30808,2.94894 3.68617,0.88468 h 252.57638 l 6.48766,-2.65405 5.45554,-4.27595 3.83361,-6.34022 z"
       id="0" />
    <path
       style="fill:#0000fe;fill-opacity:0.253012"
       d="m 333.217,417.25107 8.96641,18.5584 16.89023,22.5203 18.76691,26.89924 49.0025,86.32781 -2.08521,28.15037 19.601,6.25564 16.05614,3.75338 18.14135,10.42607 7.29824,3.12782 16.47319,11.05162 32.11227,-30.65262 1.87669,-8.7579 5.42156,-5.83859 3.12782,2.29373 182.66463,-192.0481 -2.08521,-2.71077 -18.97544,0.62556 -160.7699,-28.35889 -47.33433,-9.17494 -30.23558,-8.54937 -12.09424,-1.25113 h -9.8005 l -41.70425,8.13233 -10.63459,4.17043 -12.92832,12.30275 -5.83859,2.29374 -3.54487,5.63007 -30.4441,28.56742 z"
       id="52" />
    <path
       style="fill:#0000fe;fill-opacity:0.253012"
       d="m 634.1132,169.73632 -45.24912,82.78295 -4.37894,12.71979 -2.50226,5.21304 -36.2827,98.42204 160.97843,28.35889 19.18395,-0.83408 1.87669,3.75338 45.0406,-1.04261 12.51128,-4.58746 11.05162,-9.38346 1.04261,-4.58747 0.41704,-7.71529 37.53383,-60.05413 -111.97592,-84.65963 -61.30526,-44.83208 z"
       id="53" />
    <path
       style="fill:#0000fe;fill-opacity:0.253012"
       d="m 269.09671,69.646106 4.27468,-4.274686 1.45965,-4.378947 8.65364,-3.544861 30.75688,-5.525814 33.78045,-10.843107 100.19447,50.983453 75.36714,29.139136 109.70042,48.65744 -45.11872,83.01256 -42.61213,115.59829 -47.62532,-8.8468 -29.04702,-8.55192 -13.71255,-1.62191 -10.17383,0.14744 -41.28511,8.25702 -10.76361,4.42341 -11.79575,11.79574 -7.07745,2.80149 -2.35915,5.16064 -30.81638,28.89958 -7.81468,5.89787 -11.79574,-21.67468 -12.09064,-28.75213 -22.26447,-58.24149 -13.12277,-21.23234 36.86171,-12.53298 -6.48766,-24.47617 13.86,-21.08489 -7.51979,-0.44234 7.07745,-69.44745 -15.62937,-2.35915 -3.09638,-1.76936 -11.6483,5.16064 z"
       id="54" />
    <path
       style="fill:#0000fe;fill-opacity:0.253012"
       d="m 67.248112,356.15434 -27.107766,-38.99348 33.676186,-26.37794 -0.104261,-3.9619 11.46867,-10.42607 6.881203,-11.46867 1.563909,-6.15138 4.170426,0.52131 1.042606,-4.37895 -3.33634,-0.41704 1.251127,-53.58997 2.085213,-12.30276 3.023555,-5.94285 1.8767,0.62556 5.63007,-6.98546 -2.18947,-1.04261 7.71528,-8.44511 5.8386,-3.12782 39.61904,-25.33533 13.97093,-6.56842 13.7624,-0.93835 2.18947,-6.67268 h 3.02356 l 35.7614,-24.292729 29.4015,-17.307265 10.21754,-12.824059 18.24562,90.602493 11.98997,-5.00451 2.9193,1.45965 15.43057,2.29373 -6.98546,69.75037 7.19398,0.20852 -13.55388,20.95639 6.3599,24.18847 -36.59548,12.61554 -111.03758,36.38696 z"
       id="55" />
    <path
       style="fill:#0000fe;fill-opacity:0.253012"
       d="m 348.56426,40.916489 16.88266,-1.105851 0.14744,-4.12851 99.19957,-15.455564 226.24558,14.596489 -2.08521,36.699745 47.12581,57.968912 6.8812,5.63008 91.33232,118.85712 -5.21303,20.43509 -12.7198,13.97093 7.50676,5.21303 -1.35538,5.31729 14.2837,11.05163 -1.66817,2.81503 L 662.26357,183.2902 633.48764,169.73632 523.3884,120.94234 448.32074,91.749362 Z"
       id="56" />
    <path
       style="fill:#0000fe;fill-opacity:0.253012"
       d="m 67.456633,356.36286 28.671675,49.62807 32.529322,62.13934 16.05614,29.19297 29.4015,36.28271 87.16189,50.67067 10.21754,-0.20852 23.77143,3.54486 51.29623,1.25112 37.53383,1.66818 22.5203,3.12781 17.30727,6.46416 2.50225,-29.19297 -48.79398,-85.49373 -21.26917,-30.65263 -14.38797,-18.55839 -9.59198,-19.18396 -24.18846,-51.71327 -21.89474,-57.34335 -13.13684,-20.43509 -109.26515,35.44862 z"
       id="57" />
  </g>
</svg>
