<?xml version="1.0" encoding="UTF-8" standalone="no"?>
<!-- Created with Inkscape (http://www.inkscape.org/) -->

<svg
   version="1.1"
   id="svg1"
   width="820"
   height="879"
   viewBox="0 0 820 879"
   xmlns="http://www.w3.org/2000/svg"
   xmlns:svg="http://www.w3.org/2000/svg">
  <defs
     id="defs1" />
  <g
     id="g1">
    <path
       style="fill:#0000fe;fill-opacity:0.253012"
       d="M 164.90828,115.18454 161.99892,99.579742 155.25447,79.214164 147.18759,63.873858 135.28563,49.194773 121.79674,39.144228 109.10131,33.193247 97.86057,29.358171 87.677781,26.977779 78.949676,26.316559 72.205231,26.052071 V 3.4383443 L 69.692595,1.7191722 2.7771243,48.798041 v 2.777124 L 69.031375,98.389546 71.808499,97.86057 V 70.882791 l 18.514162,0.396732 21.952509,4.364052 16.79499,6.876689 12.56318,7.670153 8.99259,6.744445 6.6122,7.273418 5.55425,7.27342 z"
       id="back" />
    <path
       style="fill:#0000fe;fill-opacity:0.253012"
       d="m 524.03362,857.8666 v -47.12937 l 2.05723,-6.35872 5.2366,-6.73276 4.67553,-2.24426 7.10681,-1.68319 h 252.47872 l 6.1717,1.30915 7.48085,5.23659 3.55341,6.17171 1.87021,5.61063 v 45.44617 l -1.49617,5.04958 -5.23659,7.10681 -4.30149,2.80532 -6.91979,2.24425 H 540.30447 l -5.04958,-0.9351 -5.23659,-3.74043 -4.48851,-5.79766 -0.93511,-3.74043 z"
       id="0" />
    <path
       style="fill:#0000fe;fill-opacity:0.253012"
       d="m 244.90436,830.00043 5.61064,-8.97702 2.24426,0.0935 2.24425,-6.0782 32.07415,-40.11606 11.68883,-10.5667 5.61064,1.68319 2.24425,-1.02862 -12.24989,-36.74968 -1.7767,-7.48085 1.40266,-22.44255 39.83553,-166.82298 10.47319,-41.89277 4.30149,-11.4083 12.3434,-51.24383 0.74809,-8.22893 0.37404,-12.71745 -6.91979,-49.37362 -21.10502,-152.7293 -330.3455476,67.44444 17.9851856,58.98083 -10.050545,2.90937 2.64488,33.06101 -11.3729847,1.32244 28.3002187,135.41787 42.84706,2.64488 -1.586928,45.75642 53.955561,65.85752 7.40566,6.87669 109.76253,140.97212 -6.87669,25.91983 -13.48889,14.28235 7.40567,5.81874 -2.38039,6.87668 z"
       id="62" />
    <path
       style="fill:#0000fe;fill-opacity:0.253012"
       d="m 334.20702,830.00043 -22.25553,-66.57958 -5.42362,1.49617 -14.02659,-43.95 1.49617,-23.56468 40.39659,-166.82298 134.4683,10.84724 43.20192,4.48851 63.58723,4.67553 67.32766,2.99234 166.82298,11.96936 7.20138,91.17143 -6.87669,3.3061 -15.60479,-41.39238 -20.89455,8.9926 0.66122,21.55577 -40.73116,14.54684 16.26601,41.78911 -3.04161,1.85142 2.64488,3.57058 -2.77712,3.43835 -74.71787,19.04314 -31.34183,27.90348 -92.30632,28.8292 -4.23181,-13.62114 -10.97625,1.71918 -3.57059,-12.56318 -65.06406,20.23333 z"
       id="63" />
    <path
       style="fill:#0000fe;fill-opacity:0.253012"
       d="m 334.51123,530.23237 10.18279,-40.66503 4.36405,-11.30687 12.23257,-51.17843 1.25632,-21.29129 -27.96961,-202.20109 65.46079,-12.10033 4.09956,0.26449 22.48149,-28.69695 1.45468,-5.68649 28.03573,-21.29129 13.48889,-14.94357 39.80545,-17.05948 17.98518,-15.075819 14.54685,-41.127888 11.24074,-21.952506 10.84401,-10.315033 36.3671,-11.9019616 29.62266,35.1769076 -1.32244,33.061003 2.90937,0.264488 -11.63748,148.906759 -6.34771,5.55425 56.60044,78.55294 38.21852,34.78018 27.24226,23.01046 10.44728,13.09215 5.55425,11.63748 3.17386,11.10849 1.05795,12.56318 -8.19913,87.94227 -1.45468,6.21547 -7.27342,14.01787 -10.71177,12.95991 -11.24074,7.93464 -17.19172,7.40567 0.66122,2.64488 108.44009,8.59586 0.52897,6.21547 -167.28867,-12.03421 -65.98977,-2.64488 -58.05512,-4.62854 -48.79804,-4.62854 z"
       id="64" />
  </g>
</svg>
