<?xml version="1.0" encoding="UTF-8" standalone="no"?>
<!-- Created with Inkscape (http://www.inkscape.org/) -->

<svg
   version="1.1"
   id="svg1"
   width="840"
   height="741"
   viewBox="0 0 840 741"
   xmlns="http://www.w3.org/2000/svg"
   xmlns:svg="http://www.w3.org/2000/svg">
  <defs
     id="defs1" />
  <g
     id="g1">
    <path
       style="fill:#0000fe;fill-opacity:0.253012"
       d="m 838.9066,88.447021 -3.62617,-15.923617 -3.46851,-10.720851 -4.72979,-9.617234 -7.88298,-10.563191 -7.72532,-6.464043 -11.03617,-7.41 -9.61723,-3.78383 -8.1983,-2.522553 -6.77936,-0.788298 -9.7749,-0.630638 V 0.94595745 l -2.20723,-0.15765958 -51.87,35.78872313 v 3.153192 l 52.02766,36.419362 2.04957,-0.630639 V 54.707872 l 14.66234,0.15766 13.40107,2.522553 14.18936,4.572128 8.1983,4.572127 6.6217,4.887447 5.04511,4.414468 3.62617,3.468511 3.15319,3.941489 2.52255,3.468511 z"
       id="back" />
    <path
       style="fill:#0000fe;fill-opacity:0.253012"
       d="m 6.9370213,713.56723 v -57.23042 l 1.2612766,-4.88745 3.7838301,-5.20276 5.045106,-4.57213 4.729787,-2.20724 6.621702,-0.94595 H 329.50851 l 6.30638,2.04957 4.72979,3.94149 3.62617,3.78383 2.83787,4.57213 2.20724,5.99106 0.31532,2.83787 v 52.18532 l -0.63064,4.09915 -2.99553,6.30639 -6.30639,5.51808 -6.14872,3.46851 -5.51808,1.10362 H 28.536383 L 21.914681,732.64404 14.031702,727.7566 9.9325532,723.34213 7.41,717.9817 Z"
       id="0" />
    <path
       style="fill:#0000fe;fill-opacity:0.253012"
       d="m 208.74128,552.59681 -32.79319,-25.85617 -11.50915,-6.77936 -29.79766,-7.09468 -8.82894,-4.41447 -10.87851,-10.24787 -7.41,-14.50469 -33.739149,-88.92 -1.544245,-10.94651 -69.7878286,-205.90754 5.1281791,-3.56743 1.1148215,-13.15489 -2.229643,-8.02672 11.817108,-5.35114 12.93193,17.39121 8.472644,-4.23632 6.911894,14.71565 45.930647,-26.53276 -2.898536,-11.81711 5.128179,-2.4526 5.351139,8.91857 59.9774,-25.19497 -1.33778,-9.81043 9.58746,-4.01335 4.90522,8.6956 10.03339,-4.23632 8.02672,12.04007 66.88929,-1.33778 -4.90522,73.35526 -3.34446,28.31646 49.05215,6.02004 36.34318,-1.78372 -7.80375,14.26972 -8.47264,7.80375 -8.69561,13.82379 -4.68225,11.59414 -1.78372,30.10018 -1.78371,13.82379 -13.37786,65.77447 -23.18829,48.16029 -4.45928,11.14822 -8.47265,-0.66889 -1.11482,8.6956 -54.40329,23.85718 -29.87722,11.14822 41.69433,65.32854 z"
       id="73" />
    <path
       style="fill:#0000fe;fill-opacity:0.253012"
       d="m 622.91298,128.01957 -37.05,71.89277 -3.62617,-0.47298 -19.07681,7.09468 -1.26128,2.3649 -83.40191,26.80212 -9.30192,-5.20276 -92.07319,-7.09468 -19.07681,-0.47298 -23.01829,2.83787 -36.41937,1.89192 -48.40149,-6.30639 3.31086,-26.17149 4.88744,-75.67659 -66.84766,1.41893 -8.19829,-11.6668 151.35319,-61.644898 h 4.88744 l 71.10447,-26.329149 5.99107,-18.1308515 5.20276,-0.3153192 2.20724,13.7163827 37.83829,-5.518085 142.20894,-1.4189359 17.18489,60.2259579 -17.02723,6.621702 z"
       id="74" />
    <path
       style="fill:#0000fe;fill-opacity:0.253012"
       d="m 738.56927,308.91705 -161.7606,115.16107 -31.43797,26.08682 -12.486,15.38454 21.8505,28.53943 18.50604,9.81043 9.14153,16.49936 3.7904,20.95864 6.91189,5.35114 10.47932,2.45261 8.24968,0.89186 26.08683,-5.57411 11.59414,-3.1215 14.26972,-6.243 4.23632,-8.47264 23.85718,6.02003 20.06679,10.92525 41.69432,-29.20832 6.02004,-4.90521 4.45929,-8.24968 17.39121,-48.16029 -33.66761,-125.08298 z"
       id="75" />
    <path
       style="fill:#0000fe;fill-opacity:0.253012"
       d="m 365.77021,624.48958 2.52256,0.94595 3.78383,-2.20723 94.91106,41.14915 55.02319,20.96872 17.34255,-1.26128 0.15766,-2.99553 55.0232,-10.40553 0.78829,-2.04957 11.03617,0.63063 27.59043,-4.72978 14.66234,-0.63064 v -26.80213 l 69.68553,-47.92851 -10.87851,-9.30191 -5.8334,-9.14426 -0.47298,-6.77936 0.7883,-8.9866 4.57212,-5.99106 5.20277,-5.20277 -19.54979,-10.56319 -23.96425,-5.99106 -3.94149,8.1983 -13.71639,6.30638 -38.78425,8.98659 -10.56319,-1.73425 -8.04064,-1.73426 -7.41,-5.67574 -3.62617,-21.12638 -9.30192,-16.23894 -18.28851,-9.93255 -21.75702,-28.22107 -18.44617,21.59936 -18.28851,25.22554 -28.22106,32.79319 -15.45064,14.34702 z"
       id="76" />
    <path
       style="fill:#0000fe;fill-opacity:0.253012"
       d="m 304.83479,302.54872 7.09468,0.23649 5.99106,3.62617 8.43479,16.55426 5.2816,9.85372 5.8334,6.70053 15.92362,52.18532 4.02032,20.33809 81.51,39.1784 16.86957,15.29298 40.20319,45.2483 -29.32468,34.68511 -14.0317,12.92808 -88.44702,65.42872 -2.3649,-1.41893 -0.15766,-2.68021 -79.77574,-33.73915 -5.20277,-4.09915 -68.26659,-29.64 1.10361,-2.83787 -41.93744,-65.27107 30.4283,-10.56319 54.07723,-24.12192 0.63064,-8.51361 8.98659,0.63064 4.09915,-11.03617 23.33362,-48.40149 z"
       id="77" />
    <path
       style="fill:#0000fe;fill-opacity:0.253012"
       d="m 649.0491,663.87623 -0.11148,-26.75572 69.89931,-48.04881 -10.81377,-8.91857 -6.243,-9.69895 0.22297,-15.83046 10.14487,-10.81377 47.82585,-34.00206 4.57076,-8.58412 17.16826,-47.71437 6.02003,25.19497 25.08349,-3.67891 14.71564,48.94067 -7.69227,2.56409 2.45261,28.31646 -10.14488,1.22631 24.86053,120.17776 z"
       id="78" />
    <path
       style="fill:#0000fe;fill-opacity:0.253012"
       d="m 304.75596,301.91809 1.10361,-28.53639 4.41447,-11.19383 8.51362,-13.87404 8.9866,-7.88298 7.72531,-14.34702 22.23,-2.68021 111.46532,7.41 9.14426,5.0451 84.34787,-26.80212 0.63064,-2.3649 18.76149,-6.77936 4.09915,0.31532 36.73468,-71.73511 17.81553,53.4466 2.20724,-0.47298 60.69893,99.16787 -2.83787,1.41894 9.77489,27.59042 21.28405,-0.31531 4.72978,-3.1532 1.73426,2.68022 -165.54256,117.92936 -28.69404,23.96425 -12.13979,14.97766 -35.63106,45.56362 -40.67617,-45.56362 -16.3966,-14.66234 -81.51,-39.09957 -3.94148,-21.28404 -16.23894,-51.55468 -5.36043,-5.99107 -13.87404,-26.64447 -6.6217,-3.94149 z"
       id="79" />
  </g>
</svg>
