<?xml version="1.0" encoding="UTF-8" standalone="no"?>
<!-- Created with Inkscape (http://www.inkscape.org/) -->

<svg
   version="1.1"
   id="svg1"
   width="840"
   height="574"
   viewBox="0 0 840 574"
   xmlns="http://www.w3.org/2000/svg"
   xmlns:svg="http://www.w3.org/2000/svg">
  <defs
     id="defs1" />
  <g
     id="g1">
    <path
       style="fill:#0000fe;fill-opacity:0.253012"
       d="m 163.65106,572.04596 -4.39659,-22.34936 -5.74,-14.89958 -7.32766,-12.45702 -11.84638,-15.26596 -12.09064,-8.91532 -13.6783,-6.96127 -15.632341,-4.76298 -9.770213,-1.70979 -11.602127,-0.36638 v -24.18128 l -2.808937,-0.24425 -65.9489358,46.28638 v 3.05319 l 65.3382978,46.16426 3.053192,-0.24426 v -26.86808 l 15.998723,0.61063 21.494471,3.66383 12.94553,4.3966 9.89234,4.64085 9.64808,5.98426 5.49575,4.15234 5.61787,5.12936 4.64085,5.61787 3.78596,5.25149 z"
       id="back" />
    <path
       style="fill:#0000fe;fill-opacity:0.253012"
       d="M 531.61552,73.230987 V 22.280182 l 2.07257,-6.735869 4.31787,-6.217725 5.52686,-3.6270064 3.79972,-0.6908584 h 270.64377 l 5.69958,2.2452897 4.83601,4.6632941 4.83601,6.735869 0.51814,4.663294 v 48.014657 l -1.38171,5.354152 -3.10887,5.008723 -5.87229,5.008724 -7.77216,2.418004 H 549.05969 l -6.04501,-1.381717 -5.35415,-4.836009 -3.79972,-5.181437 z"
       id="0" />
    <path
       style="fill:#0000fe;fill-opacity:0.253012"
       d="m 192.71745,545.17787 0.24425,-166.21574 77.79532,-41.15702 127.1349,-60.08681 12.70127,25.64681 -9.40383,10.38085 45.92,33.82936 66.31532,197.3583 H 391.78553 l -29.55489,1.46553 -15.14383,-2.44255 -18.56341,2.19829 -21.98297,-0.24425 -14.89958,2.68681 h -32.48596 l -4.15234,-2.1983 -30.0434,-1.70979 -7.08341,-1.95404 z"
       id="80" />
    <path
       style="fill:#0000fe;fill-opacity:0.253012"
       d="m 213.38888,19.948535 4.31786,21.243895 12.78088,22.452897 55.53536,107.089143 7.81617,8.06042 -38.59234,37.37107 0.73276,3.66383 -43.47744,16.60936 -154.369364,116.50979 -19.29617,-41.0349 -7.32766,-18.5634 -12.212766,-42.25617 3.908085,-3.17532 -0.48851,-1.22128 -5.129362,-1.22127 -12.212766,-46.16426 3.1753192,-0.97702 -0.732766,-3.17532 -3.9080851,-0.73277 -1.4655319,-19.54042 3.9080851,-36.39404 8.3046807,-23.44851 7.81617,-2.44256 -0.244255,-3.17532 -3.175319,-1.46553 3.419574,-7.32766 L 36.882553,81.581277 50.560851,68.88 74.009362,53.491915 l 7.571915,-3.908085 20.517443,-7.083404 32.73022,-8.304681 2.19829,3.175319 26.37958,-6.350638 v -2.686809 l 27.60085,-3.66383 z"
       id="81" />
    <path
       style="fill:#0000fe;fill-opacity:0.253012"
       d="m 56.132243,440.94036 -1.381717,-2.93615 5.872296,-10.53559 3.454292,-8.98116 2.24529,-9.84473 1.209002,-10.53559 0.172714,-10.70831 -1.727146,-9.67202 -5.181437,-16.40788 4.663294,-3.79972 -4.317865,-6.73587 151.816124,-113.99163 43.69679,-16.75332 -0.86357,-3.97243 38.51536,-36.96093 52.33252,44.38765 20.72575,3.79972 7.42673,4.49058 5.87229,5.52687 3.97244,5.52687 11.57188,35.06106 -126.5998,59.93196 -98.2746,52.15981 -0.17272,-5.35415 -11.05373,4.83601 1.03628,6.04501 -34.71563,14.33531 -2.24529,-2.07258 -41.278786,21.41661 z"
       id="82" />
    <path
       style="fill:#0000fe;fill-opacity:0.253012"
       d="m 601.72298,163.77319 -3.66383,27.23447 15.75447,19.66255 15.26596,12.21277 20.15106,10.86936 19.66255,4.76298 10.38085,5.25149 16.73149,12.33489 16.12085,10.25873 17.95277,8.54893 -2.32043,7.32766 26.13532,34.07362 36.39405,27.60085 44.69872,-21.25021 -29.31064,86.46638 -4.51872,19.29617 -20.02894,50.19447 -69.49064,0.12213 -2.07617,26.62383 -62.65149,8.06042 v 2.93107 l -14.89957,-2.32043 -0.61064,1.46553 -12.70128,-9.2817 -29.92127,6.35064 L 569.6034,545.3 h -24.18127 l -0.36638,-2.1983 -31.38681,1.95405 -66.4245,-197.64035 -45.59665,-33.67934 9.24023,-10.19016 -12.69453,-26.25262 z"
       id="83" />
    <path
       style="fill:#0000fe;fill-opacity:0.253012"
       d="m 213.7234,19.784681 4.51873,21.738723 13.80042,24.425532 54.22468,104.663404 7.9383,7.9383 52.39277,44.45447 20.88383,4.03021 8.42681,5.61787 7.0834,6.96128 2.32043,3.78596 11.48,34.44 L 601.2195,162.69715 567.54015,148.18912 365.11865,13.471738 354.41034,11.269627 331.30977,10.017446 327.5964,6.5631545 l 3.71337,-3.5406491 -25.25785,0.1528138 -42.98894,7.0834038 0.48851,3.053192 h -18.29677 z"
       id="84" />
  </g>
</svg>
