<?xml version="1.0" encoding="UTF-8" standalone="no"?>
<!-- Created with Inkscape (http://www.inkscape.org/) -->

<svg
   version="1.1"
   id="svg1"
   width="840"
   height="867"
   viewBox="0 0 840 867"
   xmlns="http://www.w3.org/2000/svg"
   xmlns:svg="http://www.w3.org/2000/svg">
  <defs
     id="defs1" />
  <g
     id="g1">
    <path
       style="fill:#0000fe;fill-opacity:0.253012"
       d="m 837.48511,120.8266 -2.21362,-14.20405 -5.34957,-18.262337 -7.37873,-16.41766 -12.54383,-17.524468 -14.20404,-12.174893 -20.66043,-9.776809 -13.46617,-3.504894 -21.21383,-1.84468 V 1.8446809 l -3.32042,-1.66021281 -70.28234,50.54425491 0.18447,3.87383 68.99106,48.330637 3.68936,-0.5534 V 74.340638 l 16.23319,0.368937 16.2332,2.213617 19.36914,5.534042 13.28171,6.640851 14.94191,10.514681 6.64085,6.456384 7.19426,8.48553 z"
       id="back" />
    <path
       style="fill:#0000fe;fill-opacity:0.253012"
       d="m 275.22552,844.0684 v -47.71968 l 1.43482,-3.93402 5.34799,-7.04368 5.21754,-3.65229 6.26106,-1.95658 H 552.0163 l 7.17412,2.21746 3.52185,2.73921 3.78272,4.17404 2.08702,4.69579 0.91307,4.43491 v 46.82747 l -2.08702,5.08711 -4.82623,6.00018 -5.08711,3.26096 -6.65237,2.21746 H 292.18254 l -7.04369,-2.47833 -5.21754,-4.95667 -3.13053,-4.95667 z"
       id="0" />
    <path
       style="fill:#0000fe;fill-opacity:0.253012"
       d="m 268.05139,754.19618 -0.78263,-55.95817 -15.65263,3.00009 -7.04369,-11.21773 -3.00009,-6.52193 -6.26105,-5.0871 0.13043,-14.73957 -1.56526,-0.13044 0.52176,-12.39167 h 4.04359 l -0.52175,-25.56597 -6.26106,-0.26088 1.04351,-27.65299 -1.04351,-23.47895 11.60904,9.26114 22.43545,8.73939 0.39131,34.17492 45.78396,-0.13044 0.6522,26.47904 19.82667,0.6522 64.43321,38.57267 35.41787,-13.83511 2.95149,2.39809 -10.33021,8.85446 -1.84468,9.77681 -26.37894,27.85468 0.73788,2.58256 -5.71851,2.21361 -13.65064,15.12639 3.32042,4.42723 -0.5534,1.10681 z"
       id="85" />
    <path
       style="fill:#0000fe;fill-opacity:0.253012"
       d="m 69.544468,313.41128 2.95149,52.20447 2.213617,10.88361 4.242766,12.54383 6.087446,6.82532 4.427234,2.58255 10.145745,2.58256 h 14.572974 l 25.4566,-0.18447 51.65106,-5.16511 11.80596,-0.36893 23.79638,2.02915 36.15575,-0.92234 -1.84468,-104.77788 0.5534,-48.5151 -1.10681,-27.30128 -9.7768,-0.5534 -4.0583,2.39808 0.36893,4.0583 -7.00978,0.18447 -22.68958,-5.71851 -27.11681,4.6117 -0.92234,24.34979 -2.21361,1.66021 4.05829,14.01957 -0.36893,19.36915 -2.76702,38.36936 -66.22405,0.55341 z"
       id="86" />
    <path
       style="fill:#0000fe;fill-opacity:0.253012"
       d="m 267.01755,780.11553 -0.0922,-81.53489 -15.49532,3.13596 -7.37872,-11.34479 -2.58256,-6.82532 -6.45638,-4.8884 v -14.57298 l -1.47574,-0.55341 0.5534,-12.45159 3.96606,-0.2767 -0.5534,-24.99543 -6.17968,-0.2767 1.01457,-27.67022 -1.1068,-24.25755 -8.48554,-6.82532 -18.90798,-4.51947 -11.71372,0.27671 -30.345,6.08744 -20.47596,-3.96606 -13.09723,-8.48553 -117.137235,-93.34085 -1.2912765,53.68021 2.0291485,2.76702 -0.92234,3.50489 18.815745,37.81596 42.796596,1.84468 L 43.35,599.15234 59.398723,651.35681 35.048936,693.6 l 4.980639,6.82532 14.941914,4.79617 -14.204042,53.86468 18.446808,5.16511 -2.398085,13.65064 29.88383,8.11659 v -4.0583 z"
       id="87" />
    <path
       style="fill:#0000fe;fill-opacity:0.253012"
       d="m 72.127021,365.24681 -31.912978,-2.58255 -6.82532,19.55361 11.068086,12.54383 -27.485745,56.6317 1.291276,1.66022 -6.640851,10.33021 116.399361,92.78745 13.2817,8.11659 20.29149,3.87383 31.35958,-6.08744 h 10.69915 l 19.36915,4.42723 8.67,7.19426 -0.36894,-7.93213 -2.76702,-7.93213 -0.92234,-28.40809 -8.1166,-21.76723 -0.92234,-16.60213 v -7.19425 l 10.88362,-64.93277 -1.47575,-8.30106 -0.73787,-13.09724 -24.90319,-1.84468 -62.90362,5.53405 -38.7383,0.5534 -12.728293,-3.32043 -9.038936,-8.85446 -4.242766,-11.62149 z"
       id="88" />
    <path
       style="fill:#0000fe;fill-opacity:0.253012"
       d="m 477.53584,510.01506 2.34789,-3.00009 4.17404,1.6957 4.0436,-10.56553 6.13061,-3.00009 5.86974,-18.52228 18.00053,3.91316 -0.78263,-10.17422 -15.00044,-19.56579 49.3058,-27.26168 9.91334,15.13089 53.21896,-10.17422 26.34861,-7.56544 8.21763,14.60913 5.21755,-0.52176 0.65219,2.08702 7.04369,1.17395 1.95657,-1.82614 2.73922,1.82614 -2.73922,13.69606 8.47852,-11.34816 -1.30439,-3.91316 1.95658,-0.39132 5.21754,8.73939 -2.08701,1.30439 4.56535,11.4786 -5.60886,-5.08711 -0.6522,5.60886 -13.43518,2.08702 -9.1307,8.60895 21.65281,-3.78272 4.30448,4.56535 2.08702,-5.08711 4.95666,-0.26087 3.00009,9.26114 -6.91324,5.08711 8.47851,0.39131 0.78263,4.0436 -3.39141,1.6957 -1.43482,7.435 2.34789,4.17404 5.34799,1.43482 1.43482,6.00018 -2.21745,3.91316 -5.7393,0.65219 6.52193,13.69606 2.08702,-5.21754 2.08701,0.13043 -1.0435,-3.3914 3.13052,-4.0436 0.26088,2.73921 2.08702,-0.52175 1.56526,4.56535 4.82623,6.39149 2.21746,-0.13043 4.43491,6.00017 -6.26105,2.60878 -0.13044,4.04359 -6.78281,0.39132 -9.00027,3.26096 3.52185,2.47834 7.82632,-1.17395 4.82622,0.26088 4.56536,-0.65219 -1.43483,3.91315 -6.65237,3.39141 8.21764,3.91316 -10.56553,4.82623 -99.13337,2.86965 -14.87,-5.47843 -73.95871,-4.43491 0.6522,-10.56553 z"
       id="89" />
    <path
       style="fill:#0000fe;fill-opacity:0.253012"
       d="m 356.85351,366.63032 -0.0922,7.00979 8.02436,16.97106 -0.73787,4.6117 -4.335,4.24277 13.47216,8.54641 27.39212,29.34869 -2.86965,11.34816 12.26123,6.39149 6.39149,7.43501 1.04351,3.78272 3.00009,1.56526 6.65237,13.56562 20.47886,6.00018 29.87045,22.43544 1.95658,-3.52184 4.56535,1.82614 4.0436,-10.56553 5.86974,-2.86965 6.00018,-18.52229 18.00053,3.78272 -1.17395,-9.78289 -15.26132,-19.82668 50.34931,-27.52255 9.7829,15.26132 80.21976,-17.60921 -3.13053,-5.34799 -10.43509,1.17395 -3.13053,-2.47833 0.52176,-21.00062 -29.60957,-54.65379 14.47869,-9.39158 -11.60904,-19.95711 -1.82614,1.6957 -5.34799,-1.95658 v -5.86974 l -4.69579,-2.08702 3.26097,-3.13053 -12.00036,-16.95702 -1.95657,-0.65219 0.13043,-3.91316 -6.26105,-7.17413 -4.56535,3.52185 -1.6957,-6.13062 -73.95871,60.78441 -34.56624,26.21816 -11.34816,7.435 -24.13115,10.82641 -16.82658,4.69579 -17.34834,0.78263 -12.00035,-3.91316 z"
       id="90" />
    <path
       style="fill:#0000fe;fill-opacity:0.253012"
       d="m 228.00673,397.90305 35.21843,-1.23916 78.6545,-7.43501 11.73948,2.21746 8.47851,4.69579 -4.17404,4.0436 -13.82649,24.52246 -1.95658,14.08737 -34.56624,-5.60886 4.17404,192.52743 -44.87089,0.13044 -0.91308,-33.65317 -22.04412,-9.13071 -11.73948,-9.1307 -0.39132,-8.73939 -3.13052,-7.69588 -0.39132,-28.43562 -8.21763,-20.34843 -1.17395,-24.13114 11.08728,-65.74108 -1.6957,-9.1307 z"
       id="91" />
    <path
       style="fill:#0000fe;fill-opacity:0.253012"
       d="m 680.75923,841.85094 13.04386,-5.0871 4.17404,-3.52185 15.00044,-30.65307 12.39167,-16.43527 16.30483,-9.52202 20.73975,-8.34808 12.00035,2.08702 10.43509,0.13044 32.47922,-7.82632 7.30456,-5.60886 11.86992,-0.52175 -10.17421,-16.82659 -2.47834,-2.34789 0.52176,-2.47834 -6.65237,-1.0435 -0.91307,0.65219 -9.26115,-4.56535 -0.26087,-3.00009 h -4.95667 l -1.17395,-3.52185 1.43483,-0.65219 -7.82632,-15.5222 -4.0436,-0.39131 -1.56526,-3.26097 2.21745,-2.08702 -1.17394,-3.52184 -3.13053,-0.13044 -1.6957,-6.65237 3.00008,-0.91307 -8.21763,-19.30492 -16.43527,-2.86965 -18.65272,0.26088 -7.82632,-4.30447 h -15.13088 v -4.82623 l 3.78272,-2.60878 23.47895,0.78264 8.73939,0.91307 3.52184,-2.3479 8.21764,4.69579 3.78272,-0.91307 -10.04378,-18.78316 -6.00017,-1.56527 -0.39132,-1.56526 2.60877,-1.04351 -1.6957,-1.04351 -0.13044,-5.60886 -0.91307,-6.13061 -22.17457,1.82614 -14.34825,5.21754 -36.1315,7.56544 -2.08702,4.17404 -61.95835,18.26141 25.82556,6.43477 9.77681,-2.49032 -6.45638,6.54861 -10.79138,-0.18446 -11.16032,-2.30585 37.02441,71.95613 28.17475,-8.86983 1.30438,2.86965 1.56527,17.8701 -12.1308,38.08808 -0.26087,17.08746 z"
       id="92" />
    <path
       style="fill:#0000fe;fill-opacity:0.253012"
       d="m 262.18165,243.65937 -0.65219,54.65379 1.6957,97.95941 78.6545,-7.435 11.73948,2.47833 8.34807,4.43492 1.56526,-0.13044 0.6522,-4.95667 -8.0872,-16.82658 0.26088,-7.95676 28.43562,10.56553 18.78316,-1.04351 -0.26087,-15.65264 -2.47834,-18.00053 -6.00017,-18.9136 -4.95667,-8.73939 -12.78299,-19.69623 -16.56571,-13.1743 -15.52219,-9.26115 -22.30501,-7.82632 -40.56641,-13.30474 z"
       id="93" />
    <path
       style="fill:#0000fe;fill-opacity:0.253012"
       d="m 384.33926,78.214468 8.57776,35.879042 24.44202,3.41266 -26.01,12.4516 40.02958,65.48617 9.59234,9.03893 75.17074,-46.57819 -5.25734,-8.02436 -11.52925,4.98064 7.10202,-9.68458 -13.005,-17.43223 -4.51947,1.93691 -2.67479,-3.87383 3.41266,-1.93691 -11.80595,-17.6167 -2.30586,-0.0922 1.75245,8.02436 -4.70394,0.83011 -5.4418,-7.47096 -0.0922,-6.91755 5.07287,-2.213616 -2.85925,-0.737873 L 458.49543,79.782447 462.64596,74.15617 502.5833,62.719149 450.74777,11.805957 435.80585,5.7185106 V 15.864255 l -5.90298,15.218617 -21.39829,28.592554 -7.93213,8.485532 z"
       id="94" />
    <path
       style="fill:#0000fe;fill-opacity:0.253012"
       d="m 359.62053,400.01904 -15.21861,24.81096 -1.75245,14.66521 -34.86447,-5.81074 5.07287,218.50245 19.64585,0.92234 64.28713,38.36936 35.78681,-14.84968 22.13617,13.5584 7.37872,8.76224 6.17968,3.68936 1.38352,5.1651 15.12638,14.29628 15.12638,7.37872 20.66043,6.36415 1.93691,-1.29127 41.78202,27.67021 12.1749,10.14574 14.38851,7.74766 17.52447,15.49532 52.38893,33.57319 8.30107,9.22341 10.88361,4.24276 3.13596,-52.20446 12.17489,-37.44703 -1.47574,-17.80117 -1.29128,-2.76702 -28.22361,8.94671 -37.17032,-72.31149 10.79138,2.02914 11.62149,0.0922 5.90298,-5.81075 -9.68458,2.58256 -25.17989,-6.73309 -0.46117,-0.46117 61.98128,-18.07787 2.30585,-4.42723 37.34036,-7.32791 13.04387,-5.60886 23.34851,-1.82614 -5.7393,-18.52229 -14.87,-3.26096 -1.30439,-7.04369 12.00035,2.21746 v -4.30448 l -10.04377,-17.73965 -2.60877,-1.04351 0.78263,-3.13053 -9.00027,0.39132 -0.78263,-4.56535 2.73921,-3.78272 -1.04351,-3.00009 -6.91324,-4.95667 -5.34799,0.65219 -3.00009,-3.00008 -9.78289,4.17403 -99.65512,2.73921 -14.60913,-5.34798 -74.21958,-4.69579 0.65219,-10.43509 -68.08896,-50.87107 -20.87019,-6.39149 -6.00017,-13.30474 -3.52185,-1.95658 -1.17394,-4.17404 -6.13062,-6.78281 -12.13079,-6.65237 2.60877,-11.21772 -27.0008,-29.08782 z"
       id="95" />
    <path
       style="fill:#0000fe;fill-opacity:0.253012"
       d="m 361.83677,281.74745 57.26256,-62.48011 22.56588,-15.13088 74.48046,-45.52308 -0.52175,7.69588 5.34798,-1.17395 8.47852,18.52229 -0.26088,2.60877 2.73921,1.6957 5.34798,10.30465 -0.65219,2.3479 2.21746,1.82614 3.65228,8.34807 -1.17395,6.3915 4.43491,3.26096 5.08711,15.78308 0.78263,14.47868 7.30457,7.56545 3.91316,-2.47834 3.13052,6.52193 -2.73921,4.17404 -72.91519,60.00177 -33.13142,24.78334 -12.26123,8.47851 -25.04422,11.60904 -15.78307,4.0436 -0.39132,-16.30483 -2.47833,-18.00053 -6.39149,-19.82667 -17.2179,-27.13124 z"
       id="96" />
    <path
       style="fill:#0000fe;fill-opacity:0.253012"
       d="m 212.23053,87.991277 -10.33021,23.242983 -6.64085,-1.01458 -14.20404,41.59755 -9.22341,18.26234 0.64564,23.98086 17.52447,26.19446 27.57798,-4.51946 22.32064,5.81074 6.91755,-0.18447 -0.2767,-3.96606 4.51946,-2.58255 10.05351,0.8301 1.38352,27.76245 83.93297,28.68479 14.88396,9.2657 57.26256,-62.08879 21.91369,-14.87 -9.26115,-8.60895 -40.56641,-66.00195 25.69641,-12.26123 -23.47895,-3.13053 -8.86983,-36.653254 -26.21817,12.39167 -14.47869,4.565352 -13.04386,-10.043774 -12.39167,-0.260878 -0.26088,4.434914 -5.7393,0.521754 -3.3914,3.130528 0.13044,4.174036 -17.08746,0.130438 -14.08738,-3.78272 0.78264,6.261055 -10.95685,23.739829 -11.34816,-7.56544 -7.82632,0.52176 -0.26088,-8.73939 -22.82676,1.6957 -4.30447,-16.30483 z"
       id="97" />
    <path
       style="fill:#0000fe;fill-opacity:0.253012"
       d="m 57.738511,50.359787 -0.368936,29.514894 -2.213617,0.737872 0.553404,31.175107 2.213617,0.73787 -0.368936,27.48575 -3.135958,2.58255 2.398085,0.5534 -0.184468,16.97107 3.135958,1.47574 1.291276,22.87405 -3.135957,0.18446 0.184468,1.66022 3.135957,1.29127 2.398085,47.77724 1.475745,1.10681 4.427234,76.36978 52.388932,5.90298 65.85511,-0.5534 3.32043,-57.18511 -4.42724,-13.83511 2.76702,-2.39808 0.36894,-24.71872 -17.34,-25.4566 -1.10681,-25.4566 8.48553,-16.60212 15.31085,-42.98107 6.64086,1.10681 9.7768,-22.874041 -9.7768,-4.796171 -3.5049,8.854468 -71.38915,-27.670212 -7.74766,1.844681 -51.282125,-21.21383 -3.320425,5.349574 0.92234,4.980639 -4.980638,-0.553405 -1.873366,-4.905433 z"
       id="98" />
  </g>
</svg>
