<?xml version="1.0" encoding="UTF-8" standalone="no"?>
<!-- Created with Inkscape (http://www.inkscape.org/) -->

<svg
   version="1.1"
   id="svg1"
   width="840"
   height="769"
   viewBox="0 0 840 769"
   xmlns="http://www.w3.org/2000/svg"
   xmlns:svg="http://www.w3.org/2000/svg">
  <defs
     id="defs1" />
  <g
     id="g1">
    <path
       style="fill:#0000fe;fill-opacity:0.253012"
       d="M 839.018,110.60414 835.89425,95.563827 830.4566,77.862537 822.12658,63.053614 812.52392,50.90567 800.72306,40.840231 788.9222,34.129938 774.80744,28.692287 764.04783,26.378393 749.12322,25.684225 V 4.0904255 l -2.0479,-2.6178723 -65.28319,45.3219148 0.16362,3.272341 63.81063,45.158297 3.10873,-0.654468 v -26.34234 l 17.99787,0.818085 16.3617,3.27234 13.74383,4.581277 9.81702,4.581277 8.50809,5.235744 8.18085,6.381064 5.56298,4.908511 4.58127,5.562974 z"
       id="back" />
    <path
       style="fill:#0000fe;fill-opacity:0.253012"
       d="m 6.7082979,747.89341 v -49.73958 l 1.6361702,-7.36277 5.0721279,-5.89021 6.05383,-4.09042 3.763191,-0.65447 H 295.81957 l 5.89022,2.78149 5.23574,4.58127 2.78149,5.23575 1.14532,6.21745 v 48.26702 l -1.14532,5.72659 -5.07213,6.21745 -7.85361,5.23574 -5.07213,0.49086 H 24.051702 l -7.035532,-1.79979 -5.726596,-6.05383 -2.7814889,-5.23575 z"
       id="0" />
    <path
       style="fill:#0000fe;fill-opacity:0.253012"
       d="m 690.62745,350.63128 -8.18085,14.56191 -4.09043,4.09043 -8.34447,12.92574 -8.83532,2.78149 -2.78149,3.27234 -0.9817,13.08936 -2.61787,2.78149 -4.41766,18.16149 -3.59957,5.89022 -2.61788,3.10872 0.98171,18.65234 -2.57353,6.93158 -4.04931,4.97487 -5.66904,15.96587 -1.27264,7.86724 1.38833,17.5856 -0.11569,4.04931 -5.43765,11.91656 25.91561,22.56047 0.92556,4.04931 2.89237,0.69417 2.89236,5.09057 42.45996,35.98105 -23.9488,33.32007 59.81416,43.15413 -8.09863,11.56947 14.23045,9.37127 27.30395,16.89143 26.49409,-35.98106 -38.64203,-32.51021 7.28876,-9.13988 4.04932,-15.61878 16.89142,-9.37128 2.1982,-23.71741 5.32196,-16.54434 23.25464,-1.04126 0.34708,-5.78473 11.10669,-0.34709 -0.23139,-6.24751 -8.21432,-2.66098 3.93362,-27.07256 6.71029,0.23139 0.69417,10.41252 4.04931,0.92556 0.69417,-14.46184 -7.40446,1.38834 -43.15412,-60.50833 13.76767,-22.09769 -65.25182,-51.36845 -33.55146,-20.13088 -9.60266,-9.83405 z"
       id="99" />
    <path
       style="fill:#0000fe;fill-opacity:0.253012"
       d="m 283.38468,136.94745 25.76968,44.42202 55.97813,90.74448 21.51922,-15.73448 27.53534,-27.99812 27.07256,-9.48697 14.11475,-8.09863 12.95781,-5.55334 7.63585,-0.46278 10.41252,-2.77667 5.78474,-0.46278 22.21338,-11.80086 11.10669,-1.85112 25.91562,-9.71835 -2.08251,-12.49503 0.69417,-14.57753 z"
       id="100" />
    <path
       style="fill:#0000fe;fill-opacity:0.253012"
       d="m 677.62389,620.70209 24.29589,-33.08868 -42.11288,-35.51828 -2.66097,-5.32195 -3.23945,-0.69417 -0.92556,-4.51209 -11.80086,-9.83405 -11.68517,13.88336 -54.14512,10.75961 -1.73542,-5.09057 -31.46896,6.71029 17.4699,28.69229 -42.22857,9.71836 -42.34426,8.5614 5.43765,31.81605 -11.80086,3.00806 -28.57659,8.56141 -25.33714,15.61878 -20.82505,9.48697 -53.21956,29.73354 23.9488,27.88242 5.66904,-0.11569 41.88149,-19.20532 -0.1157,-13.30489 57.50027,-14.34615 0.69417,6.36321 115.92609,-19.32101 0.92556,3.23945 17.5856,-10.52822 1.15694,-4.16501 z"
       id="101" />
    <path
       style="fill:#0000fe;fill-opacity:0.253012"
       d="m 42.922736,217.73744 16.660037,-15.73448 0.462779,-4.62779 2.545284,-1.73542 1.041252,1.15694 98.109112,-102.38981 23.63689,-0.08167 7.7718,-2.290638 6.46288,-8.426277 31.7417,22.333725 -1.55436,2.53607 5.64478,5.39936 2.61788,5.31755 2.69968,19.87947 0.9817,8.42627 -18.89777,-3.10872 -2.9451,21.51564 -14.23468,20.61574 -3.51777,-2.12702 -9.89883,15.95266 -14.64372,9.48979 2.78149,10.06245 0.65446,8.34447 4.82671,6.7901 -2.37245,36.07755 -4.8267,21.35203 -1.14532,4.00861 1.14532,2.53607 3.10872,0.81808 -40.98606,14.88915 -20.94298,-4.49947 -25.197023,1.22713 -0.245426,-8.83532 -4.90851,-19.06138 -2.945107,-9.81702 L 72.973192,248.53426 61.847234,234.95404 53.83,226.28234 Z"
       id="102" />
    <path
       style="fill:#0000fe;fill-opacity:0.253012"
       d="m 550.16223,151.01851 0.81809,-25.52425 14.56191,-9.40798 4.90852,-5.39936 -19.1432,-22.170111 -12.59851,-7.199149 -16.3617,-4.908511 -6.87191,2.454255 -9.98064,-0.08181 L 473.99851,57.10234 451.7466,44.012979 437.83915,30.76 435.05766,25.851489 428.51298,19.79766 425.07702,13.907447 414.60553,2.7814894 400.37085,14.725532 356.35787,28.305745 354.7217,22.088298 349.64957,23.07 l -1.79978,-5.890213 -88.51681,29.451064 -10.63511,-30.105532 -2.78149,0.818085 -1.14532,-0.654468 -19.96127,24.051702 0.32723,2.127022 -2.61787,0.163617 -23.07,36.813829 0.16362,3.435958 31.90532,22.579146 27.16042,18.97958 12.10766,9.81702 6.21745,2.12702 6.54468,-0.32723 z"
       id="103" />
    <path
       style="fill:#0000fe;fill-opacity:0.253012"
       d="m 468.84458,639.16989 -4.7449,-13.41659 0.49085,-6.13564 -2.53606,-5.8084 -2.8633,1.88159 -7.60819,-11.04415 -2.20883,-10.88053 -32.47798,-51.70298 h -12.02585 l -10.14426,-1.14532 -7.93542,-10.55329 -0.81809,-3.43596 h 2.45426 l 4.66308,-6.46287 -9.08074,-11.4532 -4.58128,-0.73627 -9.40798,-11.37139 45.73096,2.29064 1.39075,-1.71798 37.87734,2.12703 0.16361,2.20883 26.75139,1.79978 48.18521,-29.61468 11.61681,0.81809 -1.06351,4.09042 34.44138,2.37245 9.89883,5.48117 6.05383,7.85362 5.48117,3.02691 6.38106,6.13564 h 29.69649 l -0.24542,3.59957 -5.31755,12.10766 13.90744,12.18947 -11.61681,13.74383 -53.91181,10.71692 -1.71797,-4.90851 -31.98713,6.7901 17.3434,28.55117 -84.34457,18.40692 5.31755,31.7417 -10.5533,2.45425 z"
       id="104" />
    <path
       style="fill:#0000fe;fill-opacity:0.253012"
       d="m 282.23936,278.14894 19.14319,0.24542 20.86117,-12.92574 2.78149,-3.51777 21.18841,-1.22713 8.18085,-5.15393 10.5533,16.68893 22.41553,-16.03446 26.83319,-27.40586 27.73309,-9.98063 13.4984,-7.69 12.76213,-5.56298 8.26266,-0.57266 10.14425,-2.78149 6.21745,-0.81809 21.59745,-11.45319 11.535,-1.79979 22.00649,-8.26265 24.46074,44.99468 5.31755,-0.65447 9.08075,16.19808 -4.25404,20.53394 7.11734,8.09904 0.0818,2.20883 9.81703,17.50702 -6.21745,2.20883 -0.40904,2.8633 -2.04522,0.32723 1.06351,6.87192 -3.35415,9.24436 -2.69968,1.06351 4.33586,9.16256 -1.8816,1.9634 0.16362,3.35415 1.63617,2.20883 -0.24543,19.06138 42.13138,1.06351 -2.53606,22.41553 -38.94085,-1.22712 -2.61787,-1.30894 -3.10873,-3.76319 -9.24436,0.89989 -13.74383,-1.30893 -15.13457,1.63617 -6.38107,0.49085 -7.03553,-1.63617 -11.28957,-2.20883 -10.88053,-0.16362 -5.64479,-0.81808 h -6.05383 l -7.44458,3.68138 -11.04415,-0.57266 -11.86223,-1.8816 -51.70298,-0.73627 8.91713,14.72553 -38.04096,-0.65447 -0.40904,-16.11628 -49.82138,15.13458 -5.48117,8.42627 -11.20777,-32.80521 -1.63617,-23.80628 -4.58128,-14.23468 -18.24329,-15.21638 -3.92681,-8.50808 -10.79873,-9.24437 z"
       id="105" />
    <path
       style="fill:#0000fe;fill-opacity:0.253012"
       d="m 340.56883,702.48968 53.31379,-29.32004 20.99859,-9.54481 25.10575,-15.50309 28.69229,-8.7928 -4.85918,-13.36274 0.57848,-6.42105 -2.48744,-5.4955 -2.77667,1.85111 -7.80939,-11.22238 -2.14036,-11.04885 -32.68375,-51.36845 -11.85871,-0.0578 -10.18113,-1.15695 -7.98294,-10.58607 -0.69416,-3.58653 2.66097,-0.0579 4.45425,-6.30536 -9.02419,-11.33808 -4.80133,-0.52063 -12.14794,-15.2717 -0.0964,-24.94454 -12.92574,-23.39723 2.12702,-14.07107 -4.90851,-4.09042 -26.50596,-3.59958 1.79979,-4.90851 -69.21,-15.87085 -2.29064,-7.85361 -5.56298,1.30893 6.21745,20.77936 -2.12702,12.27128 2.29063,9.32617 -34.35957,3.10872 -50.06681,35.17766 22.57915,19.47043 74.44575,111.09596 50.23042,68.88276 z"
       id="106" />
    <path
       style="fill:#0000fe;fill-opacity:0.253012"
       d="m 332.62228,383.64364 10.29683,31.23757 9.02418,12.14795 4.62779,4.04931 -2.31389,14.23045 12.61072,22.79186 0.34708,25.22144 3.12376,3.23946 45.35233,2.42958 1.61972,-1.85111 38.17926,2.31389 -0.1157,1.85112 26.2627,1.96681 48.24469,-29.50215 12.14794,0.80986 -1.15694,4.16501 34.01424,2.3139 10.52822,5.66904 6.01612,7.98293 5.66904,3.00806 5.66905,5.66904 29.61784,-0.11569 -1.04125,-17.4699 1.27264,-8.6771 5.66904,-15.61879 4.04931,-4.3964 2.54529,-7.05738 -1.15695,-18.97393 6.36321,-8.6771 4.2807,-18.62685 2.66098,-2.54528 1.27264,-13.53628 2.42959,-2.66098 9.48697,-3.12376 7.98293,-13.30489 3.70223,-3.23945 8.56141,-14.92462 -31.12187,-2.54528 -27.07256,0.57847 -2.54529,22.56047 -40.03037,-1.50403 -2.66097,-1.50403 -2.08251,-3.23945 -8.90849,0.57847 -14.57753,-1.27264 -21.40353,2.0825 -18.27976,-3.70223 -10.75961,-0.23139 -11.91655,-0.69417 -7.17307,3.58654 -11.80086,-0.46278 -11.22239,-2.1982 -51.83123,-0.69417 9.83405,15.15601 -38.98911,-1.04125 -0.46278,-16.08157 -49.51734,15.2717 z"
       id="107" />
    <path
       style="fill:#0000fe;fill-opacity:0.253012"
       d="m 245.83457,225.54606 90.56203,0.49086 18.07968,29.45106 -8.26266,4.90851 -21.51564,1.47255 -2.45426,3.43596 -20.94297,13.00755 -19.225,-0.49085 -0.0818,-24.29713 -16.44351,-10.38968 -14.48011,-6.13563 z"
       id="108" />
    <path
       style="fill:#0000fe;fill-opacity:0.253012"
       d="m 231.50511,106.43913 -1.50404,2.1982 5.78474,5.20626 2.42959,4.85918 2.54528,19.6681 14.11476,13.53628 -10.06544,49.51733 2.77667,14.57754 -1.61973,4.04931 -0.11569,5.20626 90.12617,0.57847 -53.21956,-88.96922 -5.90043,0.11569 -6.5946,-2.1982 -11.10669,-9.13988 z"
       id="109" />
    <path
       style="fill:#0000fe;fill-opacity:0.253012"
       d="m 170.76539,476.19941 50.32719,-34.82411 34.36133,-3.12376 -2.42959,-9.37127 2.08251,-12.26364 -6.01613,-20.94074 6.4789,-1.27264 1.96681,7.86724 68.95405,15.96587 -1.50403,4.74348 26.37839,3.70223 -8.90849,-11.56947 -10.06544,-31.70035 -11.33808,-32.85729 -1.85112,-24.52728 -4.3964,-13.99906 -18.27976,-14.34614 -3.81793,-8.7928 -11.10669,-9.60266 0.1157,-25.68423 -16.54435,-10.64391 -14.57753,-6.24751 -5.55334,-11.91656 0.69416,-5.09056 1.61973,-3.70223 -2.77667,-14.57754 10.06544,-49.51733 -13.76767,-12.84211 1.15694,8.90849 -19.20532,-3.35515 -2.66098,22.09769 -14.57753,20.36227 -3.35514,-2.3139 -10.06544,16.19726 -14.46184,8.7928 3.23945,11.10669 0.11569,7.17307 5.09057,6.94169 -2.42959,37.0223 -5.90043,24.29589 1.27264,2.89237 3.12376,0.23139 0.23139,1.15694 -41.65009,14.46184 -20.94075,-4.51209 -25.221441,1.38834 1.96681,43.26982 2.082505,14.34614 3.586536,11.56947 1.27264,5.32196 29.03937,55.41776 z"
       id="110" />
  </g>
</svg>
