<?xml version="1.0" encoding="UTF-8" standalone="no"?>
<!-- Created with Inkscape (http://www.inkscape.org/) -->

<svg
   version="1.1"
   id="svg1"
   width="680"
   height="879"
   viewBox="0 0 680 879"
   xmlns="http://www.w3.org/2000/svg"
   xmlns:svg="http://www.w3.org/2000/svg">
  <defs
     id="defs1" />
  <g
     id="g1">
    <path
       style="fill:#0000fe;fill-opacity:0.253012"
       d="M 127.35098,87.677781 123.91264,70.221571 117.03595,54.087801 107.24989,40.995644 96.009153,31.606319 83.71046,24.994118 73.130939,21.820262 62.815906,20.233334 54.749021,20.10109 V 1.8514162 L 53.162093,0.79346408 1.0579521,37.028324 l 0.132244,2.380392 51.7074089,36.89608 1.586928,-0.528977 V 54.749021 l 12.034206,-0.132244 12.563181,1.851417 12.827669,3.702832 7.802397,3.041612 6.876684,4.099565 8.06689,5.95098 3.43834,3.570589 4.62854,4.760784 3.04162,3.835076 z"
       id="back" />
    <path
       style="fill:#0000fe;fill-opacity:0.253012"
       d="m 7.8548936,858.61468 v -51.05681 l 1.309149,-5.61064 4.1144684,-6.35872 7.480851,-4.48851 3.553404,-0.74808 H 294.74553 l 7.48085,2.43127 4.30149,3.92745 4.48851,6.1717 2.05724,6.73277 v 48.06447 l -2.43128,5.98468 -6.73277,6.73276 -7.1068,2.80532 -2.99234,0.93511 H 24.686809 l -4.862554,-1.68319 -7.667872,-5.04958 -2.9923404,-4.67553 z"
       id="0" />
    <path
       style="fill:#0000fe;fill-opacity:0.253012"
       d="m 293.8462,422.38738 20.10109,-21.29129 13.88562,-10.05054 -2.90937,-6.08323 -10.44728,-4.23181 -7.40566,-6.6122 -5.68649,-0.66122 -8.72811,-4.49629 -5.95098,-1.58693 -10.97625,-41.39238 -17.19172,-93.36427 14.28235,0.66122 2.51264,-29.22593 12.0342,3.96732 134.09543,11.37299 31.34183,12.16645 v 4.62854 l 11.76972,2.38039 32.39978,12.29869 8.06689,25.12637 -8.72811,20.89455 2.51264,19.57211 6.47995,14.54684 7.40567,3.83508 5.68649,6.74445 -0.13224,4.2318 39.54096,-0.66122 11.63747,-5.15751 14.4146,-1.71917 26.58104,-22.87822 16.79499,-4.36405 -2.90936,46.81438 -31.34184,44.03726 -10.44727,12.29869 -32.26754,2.51264 -14.81133,3.57058 -12.95991,8.9926 -21.15905,4.89302 -42.31808,0.26449 -5.02527,2.77713 h -6.47996 l -2.51264,-2.90937 -5.15751,2.38039 -6.47996,-4.09956 -1.98366,-2.77713 -79.34641,-1.58693 -56.33595,-3.57058 z"
       id="111" />
    <path
       style="fill:#0000fe;fill-opacity:0.253012"
       d="m 129.41872,95.19383 22.44256,-15.522766 5.04957,-8.602979 5.79766,-34.598936 4.11447,-6.732766 5.42362,-4.862553 88.64808,-16.2708513 h 8.97702 l 6.35873,2.6182983 17.95404,18.328085 8.79,13.652553 9.53808,7.29383 9.72511,0.748085 8.97702,-1.683192 13.09149,-10.473191 5.42362,-2.244255 46.00723,2.99234 -0.37404,-7.854894 25.06085,-2.99234 14.77468,-4.675532 18.32809,0.935106 150.3651,-22.0685103 0.18702,50.1217023 4.48851,7.667872 5.79766,5.049575 -0.18702,9.538085 3.74043,6.171702 0.37404,4.114468 -1.12213,4.114468 -3.5534,5.049575 -5.61064,2.618297 -2.43128,6.358724 -0.18702,23.00362 19.45022,0.9351 v 5.2366 L 458.95021,120.25468 284.45936,106.97617 Z"
       id="112" />
    <path
       style="fill:#0000fe;fill-opacity:0.253012"
       d="m 293.6234,423.97723 -8.22893,9.53809 -25.06085,17.58 -3.17936,67.7017 2.99234,23.37766 -6.91979,2.05724 44.13702,77.05276 9.53809,-1.30915 15.70978,29.73639 -6.54574,36.84319 11.78234,11.96936 0.56106,5.79766 19.07617,34.41191 -14.02659,4.11447 v 2.99234 l -2.80532,2.24426 1.87021,10.28617 -5.98468,17.76702 -4.11447,1.30915 7.10681,14.77468 -3.92745,5.04957 3.17936,8.41596 0.37405,31.98064 110.90361,1.49617 8.41596,-1.49617 55.73234,5.04957 5.79766,-12.3434 v -3.74043 l 5.2366,-4.48851 4.30149,-2.24425 13.09149,-18.70213 9.53808,-8.97702 40.02255,-23.93872 13.09149,-1.30915 -9.16404,-11.78234 -6.91979,-13.27851 -1.30914,-10.28618 0.37404,-10.28617 10.66021,-14.40063 30.85851,-23.56468 37.03021,-8.22894 2.80532,-2.24426 0.74809,-10.66021 11.03425,-5.98468 0.37405,-1.12213 -80.7932,-141.5751 2.24426,-111.65171 -10.47319,12.71745 -32.91575,2.43128 -15.14872,3.92744 -12.15638,8.79 -21.69447,5.04958 h -41.70575 l -5.04957,2.6183 h -7.10681 l -2.05723,-2.43128 -5.42362,2.24426 -7.10681,-4.48852 -1.68319,-2.80531 -78.36191,-0.93511 -55.73235,-3.74043 z"
       id="113" />
    <path
       style="fill:#0000fe;fill-opacity:0.253012"
       d="m 285.02043,107.53723 -9.53809,96.31596 12.15638,3.74043 134.4683,11.59532 19.26319,7.29383 7.8549,-7.10681 4.11446,-24.31277 5.61064,-74.43447 z"
       id="114" />
    <path
       style="fill:#0000fe;fill-opacity:0.253012"
       d="m 625.02511,133.72021 -165.88788,-12.90447 -5.42361,74.24745 -3.92745,24.68681 -7.85489,6.91979 10.84723,4.11447 0.18702,5.42361 10.47319,1.12213 35.34703,13.09149 4.48851,-0.18702 -2.99234,-21.50745 68.6368,-5.61064 15.33575,0.18702 33.85085,-3.5534 z"
       id="115" />
    <path
       style="fill:#0000fe;fill-opacity:0.253012"
       d="m 284.08532,107.35021 -156.34979,-11.595316 6.35873,73.873406 -9.72511,3.92744 -11.96936,-33.28978 -13.652556,5.98468 0.561064,17.58 -31.793617,11.96936 12.717447,31.41957 -1.683192,1.30915 2.244256,1.87022 -4.30149,5.61063 -24.686808,7.66788 -32.915745,6.54574 18.889149,21.32043 7.667872,11.59532 6.919788,5.42361 8.415957,12.90447 23.938723,21.50745 93.884682,60.03383 13.09149,0.18702 16.08383,-3.92745 30.29745,9.91213 21.69446,11.59532 34.03788,40.3966 18.88914,-20.01128 14.40064,-10.28617 -2.61829,-5.61064 -11.22128,-4.86255 -5.98468,-5.79766 -6.35873,-0.74809 -8.79,-4.67553 -6.1717,-1.68319 -10.84723,-41.70575 -16.83192,-93.51063 13.83958,0.37404 2.6183,-30.29745 z"
       id="116" />
  </g>
</svg>
