<?xml version="1.0" encoding="UTF-8" standalone="no"?>
<!-- Created with Inkscape (http://www.inkscape.org/) -->

<svg
   version="1.1"
   id="svg1"
   width="715"
   height="879"
   viewBox="0 0 715 879"
   xmlns="http://www.w3.org/2000/svg"
   xmlns:svg="http://www.w3.org/2000/svg">
  <defs
     id="defs1" />
  <g
     id="g1">
    <path
       style="fill:#0000fe;fill-opacity:0.253012"
       d="M 713.32421,88.471245 708.69567,69.295863 700.62878,52.368629 691.23946,39.144228 679.07301,29.622659 667.30329,24.06841 653.02094,20.10109 639.79654,19.572114 V 0.13224401 L 637.68063,0.66122007 585.44425,37.160568 v 2.380392 l 52.63311,36.89608 1.71918,-0.793465 V 54.616777 l 15.47254,0.264488 14.28236,2.512637 13.48889,4.760784 10.57952,5.686493 7.8024,6.744444 6.08322,5.554249 3.43834,5.157516 z"
       id="back" />
    <path
       style="fill:#0000fe;fill-opacity:0.253012"
       d="m 395.17596,856.83798 v -53.11404 l 1.7767,-4.86256 4.20798,-4.76904 5.98468,-4.67553 4.48851,-1.40266 h 279.59681 l 5.51713,2.99234 4.58202,3.92745 3.45989,5.04957 1.68319,6.73277 v 50.22492 l -1.96372,4.99311 -3.78718,4.90931 -4.395,3.69367 -6.03144,3.22612 -3.64691,0.37404 H 412.66245 l -7.29383,-2.94559 -5.28335,-4.16122 -3.0391,-5.00282 z"
       id="0" />
    <path
       style="fill:#0000fe;fill-opacity:0.253012"
       d="m 131.56947,243.68872 -1.7767,3.92745 -6.82628,-1.49617 -6.73277,0.56106 -20.759358,-5.04957 -17.954043,0.74808 -11.501808,4.48852 -22.723085,2.43127 -35.2535111,10.47319 -2.1507447,2.6183 8.6964898,14.21362 3.085851,0.18702 0.654574,3.64691 -5.797659,2.43128 0.280531,4.02096 3.740426,4.11447 -1.028617,-5.89117 4.862553,-2.05724 5.704149,9.53809 23.190638,29.82989 h 1.683192 l 5.049574,9.07053 -0.374042,5.14309 4.020957,-0.0935 9.257554,17.95404 v 2.71181 l 2.244255,0.56106 8.79,21.88149 -0.09351,5.14309 2.89883,2.71181 5.610638,15.05521 v 11.4083 l 4.488511,4.48851 5.984681,0.37404 2.057234,6.07819 0.18702,2.89883 -2.337765,1.49617 1.122128,1.7767 3.459897,-2.24425 7.20031,9.44457 0.56107,2.99234 13.27851,17.11245 -2.05723,1.96372 2.15074,1.49617 0.74808,4.86256 4.02096,-3.4599 13.27851,24.03224 -12.99798,8.13542 25.24788,48.06447 0.18702,18.60862 11.03425,-0.8416 9.25756,18.14107 6.45223,-0.93511 -0.28053,2.52479 3.08585,0.74808 4.11447,-2.15074 1.96372,2.71181 5.89117,-2.43128 6.63926,11.31479 -1.77671,1.30915 0.46756,4.76904 3.08585,6.07819 -17.95404,2.71181 -1.77671,1.7767 12.06288,-1.87021 0.65457,2.24425 2.15075,-0.46755 0.0935,-1.96372 7.38734,-0.37405 3.5534,8.69649 0.28053,5.2366 60.95638,1.30019 39.67321,5.81874 9.52157,-35.30915 0.13224,-18.38192 -2.77712,-13.2244 -39.40872,-97.99281 -5.68649,-19.30763 -5.55425,-40.33442 -25.5231,-56.86493 -13.75337,-30.81285 -1.85142,-31.34184 -34.91242,-14.28235 -56.2037,-21.42353 z"
       id="117" />
    <path
       style="fill:#0000fe;fill-opacity:0.253012"
       d="m 398.45121,411.14664 0.66122,7.93464 4.36405,6.21547 5.15752,7.14117 3.43834,3.70284 6.21547,1.98366 h 4.09957 l 13.09216,-2.24815 13.88562,-3.83508 8.59586,0.39673 6.87669,5.6865 6.6122,7.80239 14.28235,26.58105 4.09956,11.24074 1.32244,8.06688 8.59587,10.57953 8.99259,7.27342 11.50523,3.3061 6.34771,9.12483 16.26601,5.42201 -3.3061,13.75338 5.15752,8.19912 8.7281,5.15752 3.04162,6.08323 1.19019,7.67015 11.76972,12.82767 0.13224,10.71176 -4.49629,2.77713 -2.77713,9.25708 6.87669,-1.98366 18.24968,-16.66275 7.93464,-10.18279 13.75337,-25.91982 14.15011,-12.56318 12.69543,0.26448 8.7281,-2.90937 1.45469,-3.43834 -6.08323,-19.04314 9.78606,-11.76971 4.76078,-3.17386 55.80698,-0.66122 -65.56548,-77.73548 -61.34298,-84.90765 -99.75778,20.08408 -18.64641,9.65382 -41.26013,31.47407 z"
       id="118" />
    <path
       style="fill:#0000fe;fill-opacity:0.253012"
       d="m 211.98715,619.95993 1.71918,3.96732 v 2.11591 l -3.57059,1.05795 -0.92571,3.3061 0.52897,3.17386 3.83508,1.71917 2.38039,1.19019 1.58693,6.87669 -1.71917,2.90937 -2.24815,2.38039 -2.77712,0.52898 0.26448,1.71917 2.51264,-0.13224 -0.26449,3.04161 h 1.05796 l 0.26448,-3.57059 3.70284,-3.70283 1.98366,-0.26449 1.98366,2.77713 1.32244,0.39673 0.9257,3.3061 3.83508,5.28976 2.38039,-0.13224 6.08323,8.7281 -7.14118,3.70283 0.92571,3.57059 -1.85142,0.13224 2.90937,2.64488 -0.92571,2.77713 2.77713,-1.85142 -1.05796,-6.08322 5.81874,-0.26449 4.23181,8.46362 -1.05795,1.45468 1.85141,0.66122 -0.66122,3.43835 -1.32244,0.66122 h -8.59586 l 7.67016,1.05795 2.90936,3.70283 3.3061,0.66122 3.70284,6.08322 -4.23181,0.92571 -0.52898,2.3804 7.67016,0.39673 1.45468,2.64488 -0.92571,0.92571 0.26449,1.19019 h 1.71917 l 9.65381,16.5305 0.52898,4.76079 -2.24815,1.71917 -8.99259,-1.32244 v 1.1902 l 13.2244,3.83507 5.28976,11.76972 v 4.36405 l -7.27342,-0.26449 -2.38039,-1.05795 -2.24815,-4.49629 -0.52898,3.04161 3.96732,4.76078 -8.46361,0.26449 -4.4963,-4.89303 -1.05795,-2.38039 -6.74445,-5.81874 -0.52897,1.45469 2.38039,2.38039 4.36405,4.09956 0.92571,1.98366 3.43835,3.17386 -6.21547,1.58693 -0.66122,1.58693 9.12483,-1.85142 2.77713,3.70283 h 5.422 l 0.26449,-1.98366 8.33137,-0.13224 -0.26448,5.68649 2.1159,0.39673 v 3.83508 h 2.51264 l 10.57952,19.04314 -0.39674,2.24815 -3.3061,0.79346 -1.85141,1.85142 -8.19913,-4.76079 -2.24815,1.45469 -28.69695,-1.71918 -1.98366,2.11591 h 11.50523 l 7.27342,3.04161 18.24967,0.66122 9.25708,0.79346 4.62854,2.3804 6.34772,11.90196 2.24815,8.33137 -2.3804,0.92571 0.13225,2.77712 2.24815,-0.26449 2.1159,3.43835 0.52898,2.77712 -1.32244,0.92571 0.13224,1.05795 3.3061,-0.26448 4.36405,11.10849 4.23181,5.15752 -1.58693,0.66122 0.26449,1.45468 3.04161,-0.79346 1.45469,3.04161 3.17385,2.64488 60.56776,-47.87233 -8.19913,-13.88562 19.96885,-16.13377 26.18431,-26.84554 5.55425,2.3804 6.47996,1.05795 7.14118,-4.23181 h 2.38039 l 1.98366,-2.51264 10.05054,-4.62854 14.15011,-16.79499 6.6122,-14.01786 0.13225,-5.6865 3.57059,-7.5379 2.90936,-0.13225 0.13225,-6.34771 3.83507,-11.24074 8.33138,-5.81874 6.87669,-7.00893 4.09956,4.89303 2.77712,10.57952 1.32244,3.04161 4.36406,3.43835 5.81873,15.07581 -0.26448,2.90937 3.70283,1.85142 7.80239,-3.17386 3.04162,-24.72963 5.68649,-20.63007 16.13377,-27.77124 -1.05795,-3.04161 2.24814,-3.70283 4.4963,-1.32244 2.90937,0.52897 1.85142,-3.43834 0.39673,-2.90937 -2.77713,-4.23181 -0.9257,0.39673 3.57058,-13.09215 4.23181,-2.11591 -0.26449,-10.84401 -11.63747,-12.43093 -1.32244,-8.59586 -3.3061,-5.81874 -8.46362,-4.76079 -4.89302,-8.06688 3.17385,-13.88562 -16.26601,-5.28976 -5.95098,-8.9926 -12.56318,-3.83507 -8.72811,-7.00893 -8.19913,-10.44728 -1.05795,-7.93464 -4.4963,-12.2987 -14.15011,-25.2586 -6.6122,-8.46362 -6.6122,-5.15752 -8.46361,-0.52897 -12.56318,3.57059 -14.81133,3.04161 0.66122,5.28976 6.87668,4.23181 7.40567,40.99564 8.59586,13.35665 -0.39673,7.93464 -31.07735,27.90349 h -6.21546 l -22.08475,20.89455 -2.24815,-0.26449 -61.75796,32.00305 -9.38932,35.30915 -40.46667,-5.422 z"
       id="119" />
    <path
       style="fill:#0000fe;fill-opacity:0.253012"
       d="m 242.84713,344.30617 31.79362,-8.69649 6.63925,-5.04957 20.85287,-2.89883 48.15798,1.02861 8.22894,-5.04957 32.07415,10.47319 10.00564,10.66021 5.23659,13.55905 -8.13542,41.70574 0.28053,11.50181 0.84159,8.60298 12.99798,16.55138 9.6316,2.33777 0.9351,5.51713 6.73277,4.30148 7.76138,41.79926 8.22894,12.15638 -0.37404,8.13543 -30.57798,27.49213 -7.0133,-0.0935 -21.22692,21.03989 -3.45989,-0.28053 -60.87542,31.79361 0.28053,-18.42159 -2.80532,-13.83958 -31.41958,-77.4268 -13.27851,-38.33937 -5.61064,-41.51872 z"
       id="120" />
    <path
       style="fill:#0000fe;fill-opacity:0.253012"
       d="m 136.87255,177.47147 -21.29128,12.82766 -3.83508,-5.02527 -7.40566,3.17386 -0.66122,7.14118 30.28388,44.96296 -1.98366,3.04161 3.83507,3.17386 57.12942,21.55577 8.19912,-6.74444 -15.07581,-4.89303 -0.52898,-2.64488 -47.74009,-73.52767 z"
       id="121" />
    <path
       style="fill:#0000fe;fill-opacity:0.253012"
       d="m 208.41656,100.63769 -21.42353,20.36558 1.58693,1.98366 -21.68802,18.64641 -0.13224,2.51263 -9.12484,7.8024 0.26449,5.02527 -1.85141,2.90937 -3.96732,1.05795 -2.24815,3.83508 -6.34772,4.23181 -2.38039,-0.26449 -3.83507,8.72811 0.52897,3.04161 47.74009,73.13094 0.66122,2.77712 15.20806,4.4963 51.9719,-32.66427 -4.09957,-14.94358 4.89303,-16.5305 1.58693,-27.11002 14.01787,3.43834 16.26601,-3.83507 15.07582,-5.6865 -6.47996,-7.27342 -5.28976,-22.08475 -7.27342,3.57059 -23.27495,1.98366 -3.83507,-2.90937 1.19019,-2.90936 z"
       id="122" />
    <path
       style="fill:#0000fe;fill-opacity:0.253012"
       d="m 357.95872,323.4533 -7.76138,4.95606 -48.15798,-1.02861 -21.22691,3.08585 -6.07819,4.76904 -32.16766,8.79 -13.27851,-29.82989 -1.96373,-31.70011 -34.13138,-14.12011 8.60298,-7.10681 51.99191,-32.91574 -4.30149,-14.9617 5.04958,-16.55139 1.30915,-26.83755 14.21361,3.45989 16.73841,-4.02095 14.77468,-5.51713 2.33776,2.99234 19.2632,6.91979 3.74042,3.45989 5.61064,-3.17936 4.67553,4.95606 6.26522,10.47319 2.43127,8.97703 5.61064,4.30148 0.28053,6.82628 1.7767,10.5667 0.46756,20.38532 -1.96373,9.91213 -6.91978,7.48085 -0.46756,2.99234 2.80532,12.34341 -0.84159,5.51712 -3.08585,8.41596 -7.66788,9.72511 0.28054,7.85489 2.05723,4.95607 7.29383,5.98468 6.73277,3.17936 z"
       id="123" />
    <path
       style="fill:#0000fe;fill-opacity:0.253012"
       d="m 349.52093,5.4220045 -7.53791,6.8766885 -1.45469,6.744445 -5.28976,4.364052 -6.47995,1.586928 -7.40567,6.347713 -4.23181,7.537909 0.13225,5.686492 2.64488,6.215469 -0.79347,13.621133 -4.49629,10.976253 -3.57059,6.347713 -5.95098,3.041612 -6.08323,0.793464 -6.74444,9.653813 1.1902,0.793464 -3.17386,9.521567 -2.64488,10.84401 1.98366,18.51416 5.422,21.55578 7.14118,7.80239 1.98366,2.24815 19.70436,7.53791 3.17385,2.77713 5.6865,-3.04162 5.15751,5.28976 5.6865,9.25708 1.45468,5.81874 1.71917,4.76079 4.76079,3.17385 0.52897,7.93464 2.11591,9.38933 0.39673,22.87821 -2.51264,9.38933 -6.6122,6.74444 -0.26449,3.57059 3.04162,11.76972 -4.09957,13.75337 -8.06688,9.78606 0.79346,8.46362 2.11591,4.36405 6.6122,5.02527 6.87668,3.43835 5.6865,4.89303 33.061,10.71176 10.18279,10.84401 4.89303,13.2244 -8.59586,42.31809 0.92571,10.57952 66.65098,-48.53356 18.38192,-9.65381 100.24096,-19.8366 L 479.78128,179.85186 395.14511,104.34053 352.56254,18.381918 350.71112,5.0252725 Z"
       id="124" />
  </g>
</svg>
