<?xml version="1.0" encoding="UTF-8" standalone="no"?>
<!-- Created with Inkscape (http://www.inkscape.org/) -->

<svg
   version="1.1"
   id="svg1"
   width="794"
   height="879"
   viewBox="0 0 794 879"
   xmlns="http://www.w3.org/2000/svg"
   xmlns:svg="http://www.w3.org/2000/svg">
  <defs
     id="defs1" />
  <g
     id="g1">
    <path
       style="fill:#0000fe;fill-opacity:0.253012"
       d="m 792.53837,86.487585 -5.422,-20.365578 -10.71177,-20.497822 -8.19913,-8.992593 -8.86035,-6.744445 -9.52157,-4.364052 -10.844,-3.306101 L 721.92007,20.630066 721.39109,1.4546841 670.3449,36.631592 v 1.98366 l 49.856,35.309151 1.85141,-0.264488 -0.79346,-20.365578 h 14.15011 l 11.50523,1.454684 12.29869,4.099565 8.19913,3.96732 8.99259,5.289761 4.36405,3.96732 5.81874,5.289761 2.51264,4.496296 z"
       id="back" />
    <path
       style="fill:#0000fe;fill-opacity:0.253012"
       d="m 11.221277,845.52319 v -67.14064 l 1.49617,-7.29383 5.610638,-8.79 8.977021,-7.29383 10.473192,-2.61829 H 416.49638 l 11.59532,2.80532 6.73277,4.86255 6.35872,7.10681 3.92745,12.71744 v 66.7666 l -2.99234,9.53809 -7.10681,9.35106 -8.60298,4.67553 -9.16404,2.43128 H 38.15234 l -8.977021,-2.6183 -9.351064,-5.04957 -6.545744,-10.84724 z"
       id="0" />
    <path
       style="fill:#0000fe;fill-opacity:0.253012"
       d="M 5.0252725,66.650983 11.637473,59.774294 56.33595,46.549893 249.94118,8.9925929 l 0.26449,-5.2897605 15.34031,2.6448802 14.01786,-2.6448802 14.15011,8.0668846 9.12484,2.115904 10.31503,0.132244 5.6865,-1.32244 1.05795,3.173857 -7.53791,4.364052 -3.83508,5.157517 -2.77712,7.141176 -0.13225,7.802397 3.96732,8.199129 4.62855,4.62854 6.21546,3.306101 7.40567,0.793464 0.26449,5.025272 -67.84118,33.722223 -73.65992,41.127887 -39.01198,19.04314 -21.29129,-9.78606 L 99.711986,126.95425 8.9925929,67.708935 Z"
       id="125" />
    <path
       style="fill:#0000fe;fill-opacity:0.253012"
       d="m 769.52791,620.7534 4.76079,-3.70283 -1.85142,-28.16798 -0.13224,-37.42506 1.19019,-0.66122 -1.09736,-199.57035 -2.07649,-51.16429 -1.85142,-8.06689 -6.21547,-11.37298 -9.78606,-10.97626 -8.7281,-5.81873 -137.53377,-53.42659 -23.80393,48.00458 -17.05947,31.07734 -33.19325,-9.78605 -34.38344,52.23638 -88.86798,-51.04619 -17.05948,29.22593 -14.01786,51.04619 -3.70284,11.37298 5.55425,40.73116 1.85142,3.43835 -0.79347,32.92875 v 3.04162 l 69.16362,21.02679 8.33138,-11.63747 39.6732,13.75338 1.58693,2.38039 12.69542,5.28976 7.14118,104.8695 -12.82767,23.53944 80.93334,29.62266 91.51285,-66.3865 23.14271,9.65382 z"
       id="126" />
    <path
       style="fill:#0000fe;fill-opacity:0.253012"
       d="m 260.65295,325.18803 -6.47996,12.95991 -26.18431,76.96602 41.52462,13.35664 -1.45469,7.00894 14.54685,5.02527 -1.85142,3.70283 4.23181,4.23181 0.13224,66.78322 9.25708,0.66123 4.4963,2.24814 3.3061,5.02528 3.04161,6.87668 9.65382,7.14118 -1.45469,4.4963 10.97625,4.62854 -1.58692,5.15751 2.38039,5.55425 3.70283,2.3804 -8.86035,12.16644 8.99259,5.02528 24.99412,-38.21852 7.27342,-15.34031 9.78606,-15.47255 4.09957,-10.57952 5.422,-44.56623 0.79346,-36.23486 -2.24814,-3.3061 -5.42201,-39.93769 3.57059,-12.2987 z"
       id="127" />
    <path
       style="fill:#0000fe;fill-opacity:0.253012"
       d="m 478.19435,671.66734 28.30022,-59.37756 81.59456,29.62266 90.85163,-66.25425 23.67168,9.65381 70.88279,38.61525 -0.26449,16.13377 3.17386,3.3061 0.66122,18.9109 -4.4963,-1.05795 -1.85141,3.57058 4.09956,0.92571 0.39673,4.36405 2.77713,1.45469 12.82767,187.91874 -34.78018,-4.23181 -7.53791,20.36558 -38.87974,-35.83813 -13.75337,-8.33137 -47.07887,-15.34031 -58.84859,-35.57363 -21.68802,-17.98519 -25.52309,-30.54837 -7.00893,-3.57059 -0.26449,-38.61525 -55.41024,-16.5305 z"
       id="128" />
    <path
       style="fill:#0000fe;fill-opacity:0.253012"
       d="m 405.46213,239.38723 17.95404,-23.84521 -2.43128,-43.76298 -4.11446,-7.57436 -21.50745,-8.69649 9.91213,-29.54936 13.27851,-1.21564 14.68117,3.74043 11.4083,-10.94075 3.64691,5.04958 -1.02862,2.71181 4.95607,7.66787 h 1.49617 l 5.61064,10.66021 3.27287,-0.18702 6.07819,8.60298 12.62394,11.12776 124.93021,47.12937 -40.86415,78.92297 -33.3833,-10.00563 -34.50542,52.55298 -89.11564,-51.61788 -6.91979,-4.67553 11.68883,-33.3833 z"
       id="129" />
    <path
       style="fill:#0000fe;fill-opacity:0.253012"
       d="m 259.95957,324.66894 7.8549,-25.71543 24.87383,-74.715 -15.33575,-8.69649 4.67554,-16.55138 8.41595,-2.52479 21.0399,7.10681 17.11244,14.21362 20.01128,5.79766 23.93872,4.86255 32.91575,11.50181 7.29383,2.43127 -11.78234,33.47681 7.38734,4.95607 -16.73841,29.26883 -14.1201,50.1217 z"
       id="130" />
    <path
       style="fill:#0000fe;fill-opacity:0.253012"
       d="m 148.11329,156.57691 -1.98366,16.13377 5.81874,7.40567 10.18279,8.86034 11.90196,5.81874 11.90196,3.57059 21.55578,14.28235 16.39825,8.19913 -1.45468,5.02527 13.88562,19.04314 20.10109,14.81133 27.77124,-12.16645 7.93464,-22.87821 -15.3403,-9.12484 4.62854,-16.92723 9.12484,-2.51264 21.9525,7.40567 15.86928,13.48889 20.76231,6.47995 23.27495,4.62854 32.39978,11.1085 18.24968,-23.40719 -2.38039,-44.03726 -4.23181,-7.27342 -21.42353,-8.86035 10.05054,-30.15163 13.75338,-1.1902 14.4146,3.70283 10.97625,-11.10849 -26.05207,-41.127891 -4.89303,-3.570588 -5.68649,-25.655338 2.51263,-1.586929 4.23181,-12.034205 h -9.65381 l -1.58693,1.719172 -7.00893,0.396732 -13.75338,6.876689 -4.76078,-0.132244 -15.20806,5.950981 -18.38192,11.240741 -14.4146,3.173856 -68.10567,33.457735 -63.08039,35.309149 z"
       id="131" />
    <path
       style="fill:#0000fe;fill-opacity:0.253012"
       d="m 477.46532,672.06096 -5.61064,-4.95607 -33.10276,-13.27851 -23.84522,-12.24989 -53.76861,-36.0016 5.14308,-7.01329 -37.31074,-21.78798 25.5284,-38.71341 6.82628,-14.68117 10.19266,-15.80329 4.20798,-10.4732 5.04957,-44.23053 69.57191,21.13341 8.22894,-11.59532 38.99394,13.55904 1.68319,2.33777 12.53042,5.23659 7.29383,105.38649 -13.09149,23.37766 z"
       id="132" />
  </g>
</svg>
