<?xml version="1.0" encoding="UTF-8" standalone="no"?>
<!-- Created with Inkscape (http://www.inkscape.org/) -->

<svg
   version="1.1"
   id="svg1"
   width="840"
   height="806"
   viewBox="0 0 840 806"
   xmlns="http://www.w3.org/2000/svg"
   xmlns:svg="http://www.w3.org/2000/svg">
  <defs
     id="defs1" />
  <g
     id="g1">
    <path
       style="fill:#0000fe;fill-opacity:0.253012"
       d="M 837.98277,81.543192 834.63872,67.052341 826.66447,49.131702 817.14681,36.27 806.85745,28.981702 792.62383,22.550851 779.16192,20.492979 771.18766,19.635532 V 1.2004255 L 722.05596,36.27 770.24447,70.567872 V 50.760851 h 15.09106 l 13.20468,2.143617 9.34617,3.172553 9.08894,4.887447 8.23149,5.916383 6.60234,5.830638 3.42979,3.601277 z"
       id="back" />
    <path
       style="fill:#0000fe;fill-opacity:0.253012"
       d="m 428.41614,776.67857 v -66.08741 l 2.54649,-7.88198 5.57802,-7.39694 6.54811,-4.97171 8.85207,-2.66775 h 355.5381 l 8.73082,3.15279 5.45676,5.09298 5.33549,7.76072 3.51658,10.67099 v 60.02434 l -2.06144,7.88199 -5.09298,8.00324 -5.9418,4.60793 -9.45838,4.36541 -4.60793,0.97009 H 454.12353 l -9.7009,-2.54649 -8.00324,-5.9418 -6.30559,-8.12451 z"
       id="0" />
    <path
       style="fill:#0000fe;fill-opacity:0.253012"
       d="m 438.15532,639.14085 -1.5434,-21.09319 7.03106,-7.54553 5.31617,-13.54766 1.02894,-14.06213 -0.68596,-12.34723 -5.83064,-14.5766 -6.5166,-9.08893 -11.83276,-16.46298 -7.20256,-18.52085 -2.40085,-15.77703 -0.34297,-10.11787 0.68595,-50.41787 46.13064,-23.15106 68.25277,-17.14894 82.48638,-33.26894 17.14894,-10.80383 5.48766,28.12426 11.31829,22.4651 5.65915,17.32043 60.36426,116.61277 -81.45745,25.7234 -10.11787,5.14468 0.34298,2.22936 -11.83277,3.60128 -7.54553,6.00213 -7.88851,0.34298 -1.02894,4.11574 -7.20255,-2.74383 -25.03745,14.06213 -15.43404,12.17574 -26.23787,14.91958 -4.8017,-8.06 -42.0149,17.6634 -15.60553,5.14468 -7.20255,-0.68595 z"
       id="133" />
    <path
       style="fill:#0000fe;fill-opacity:0.253012"
       d="m 490.62318,81.851371 -11.51982,-1.94018 -12.24739,-10.30721 -8.48829,0.848829 -21.94829,-14.551355 -49.59587,10.792255 -34.19569,-4.001623 -22.91838,-14.551355 -7.15442,7.396939 -15.88523,31.527936 -19.64432,23.524693 -36.25713,31.16415 -13.09622,3.51658 -4.72919,3.03153 -0.12126,2.42522 -103.79967,85.00417 -12.12613,13.33874 -5.09297,9.7009 -7.76072,25.7074 -2.18271,1.45513 2.18271,9.45838 12.85369,-3.15279 282.78133,44.13911 20.61442,1.69766 9.45838,-180.92185 5.57802,-18.43171 8.73082,-16.73406 24.00973,-21.34199 8.00325,-4.365405 5.82054,-5.335497 z"
       id="134" />
    <path
       style="fill:#0000fe;fill-opacity:0.253012"
       d="m 713.39575,535.73277 123.30085,-41.15745 -35.66979,-85.91617 -24.18,-95.69106 -19.3783,-37.72766 -77.85617,41.50042 -49.38894,34.46936 5.65915,28.98171 11.66128,21.77914 5.83064,18.69234 z"
       id="135" />
    <path
       style="fill:#0000fe;fill-opacity:0.253012"
       d="m 475.70804,97.7366 7.15442,10.06469 -0.97009,4.00162 3.03153,4.97171 -2.42522,4.00163 10.06468,64.87479 15.27893,0.6063 3.03153,21.9483 8.1245,0.24252 19.40181,81.48759 36.25713,-6.9119 -10.671,-40.62253 37.71226,-8.12451 1.94019,10.42847 6.18432,18.31046 -2.78901,5.45676 -2.54649,38.68235 2.30397,8.73081 7.15441,17.34037 14.67262,18.18919 -16.00649,10.06469 -82.7002,33.71064 -68.51263,16.97658 -45.47298,22.91838 4.60793,-97.37282 9.45838,-180.80058 5.69928,-18.31045 8.48829,-16.37028 23.52469,-21.09946 z"
       id="136" />
    <path
       style="fill:#0000fe;fill-opacity:0.253012"
       d="m 652.38574,75.788307 -6.91189,3.516577 -25.94992,91.067226 -0.72756,7.76073 -7.03316,13.21748 -8.97333,12.97495 -2.42523,11.2773 1.5764,19.03803 1.94018,11.2773 6.42685,17.46162 -3.39532,5.3355 -2.1827,38.19731 8.73081,25.10108 15.52144,19.40181 50.56596,-35.16577 77.97101,-41.22884 z"
       id="137" />
    <path
       style="fill:#0000fe;fill-opacity:0.253012"
       d="m 97.748936,582.20638 -1.371915,25.8949 -8.574468,17.49191 -14.233617,12.51873 -16.977447,10.63234 -44.587234,10.46085 -8.4029784,39.27106 14.0621274,1.88638 20.064256,-3.25829 25.723404,12.8617 11.661277,1.71489 19.035319,-2.40085 2.57234,9.77489 -13.37617,8.23149 -5.48766,11.3183 0.342979,6.00213 2.057872,9.77489 4.115745,6.5166 7.717021,4.97319 6.173617,2.22936 h 7.888516 l 0.68595,5.65915 10.80383,-0.85745 11.83277,-4.28723 12.00425,-7.37404 6.85958,-4.97319 20.57872,-8.23149 2.91532,0.51446 23.15106,-10.28936 7.71703,0.17149 2.74383,-3.08681 15.09106,2.05788 56.93447,-33.78341 14.57659,-4.8017 52.30426,4.45872 20.57872,-0.17149 13.71915,-2.74383 11.14681,-6.00212 12.34723,-11.83277 2.05788,-0.51447 20.40723,-34.29787 -0.85745,-5.65915 13.71915,-3.2583 -1.20042,-20.57872 6.85957,-7.54553 5.31617,-13.54766 1.02894,-14.40511 -1.02894,-12.69021 -5.31617,-14.06213 -18.69234,-25.7234 -7.03106,-18.52085 -2.91532,-19.20681 1.02893,-57.44894 -73.39744,37.21319 -56.07702,43.38681 -52.81873,8.91745 -87.80255,40.12851 z"
       id="138" />
    <path
       style="fill:#0000fe;fill-opacity:0.253012"
       d="M 635.36809,3.4297872 626.62213,8.06 l -7.37404,0.3429787 -80.6,48.8744683 v 1.200425 l -4.11575,3.601277 -3.42979,-0.342979 -0.85744,-1.886383 -38.92809,22.122128 -15.09106,15.434043 7.03106,10.803832 -1.37191,3.42978 3.25829,4.80171 -2.22936,4.63021 10.11788,64.65149 15.09106,0.34298 3.08681,21.77915 8.06,0.51446 19.03532,80.94298 35.49829,-6.51659 -10.28936,-40.64298 37.89915,-7.88851 -1.71489,-18.52085 2.74383,-12.00426 9.08893,-12.34723 7.03107,-13.37617 0.51447,-7.37404 25.89489,-91.575324 6.85957,-3.772766 -11.31829,-42.529362 -3.2583,-30.0106382 z"
       id="139" />
    <path
       style="fill:#0000fe;fill-opacity:0.253012"
       d="m 103.75106,295.81915 -3.60127,4.8017 -31.725535,166.17319 0.685958,20.92171 28.124255,93.97617 50.246382,-18.00639 85.4017,-39.44255 54.01915,-9.08894 54.8766,-43.38681 74.0834,-37.0417 3.77277,-96.03404 -302.33575,-46.13064 -12.34723,3.08681 z"
       id="140" />
  </g>
</svg>
