<?xml version="1.0" encoding="UTF-8" standalone="no"?>
<!-- Created with Inkscape (http://www.inkscape.org/) -->

<svg
   version="1.1"
   id="svg1"
   width="840"
   height="742"
   viewBox="0 0 840 742"
   xmlns="http://www.w3.org/2000/svg"
   xmlns:svg="http://www.w3.org/2000/svg">
  <defs
     id="defs1" />
  <g
     id="g1">
    <path
       style="fill:#0000fe;fill-opacity:0.253012"
       d="M 837.80268,88.859552 834.00717,70.551805 824.74167,51.46263 815.02963,39.294676 802.63841,30.475701 790.80536,24.559173 776.62802,21.321827 765.46476,21.098562 V 0.66979562 l -53.58365,38.40161538 53.02548,37.843452 0.22327,-21.656725 15.29366,-0.334898 12.83775,2.232653 9.71204,2.679182 9.6004,4.465304 9.04225,5.58163 8.9306,7.70265 3.57225,4.800202 z"
       id="back" />
    <path
       style="fill:#0000fe;fill-opacity:0.253012"
       d="m 426.25532,712.00426 v -61.25447 l 2.07898,-9.08559 6.47469,-9.15387 7.47938,-6.1398 10.04694,-2.34428 h 354.32188 l 9.71203,3.12571 8.03755,7.59102 4.35367,7.59102 1.67449,7.81428 v 60.6165 l -2.45592,8.37245 -4.68857,7.25612 -6.47469,4.91183 -6.69795,3.68388 -5.24674,1.00469 H 452.00041 l -8.48408,-2.12102 -6.80959,-5.24673 -6.13979,-7.36775 z"
       id="0" />
    <path
       style="fill:#0000fe;fill-opacity:0.253012"
       d="m 275.48723,288.90638 8.05149,-8.91978 7.49894,4.89404 6.31489,-0.0789 40.33639,-29.04851 2.44702,-5.13085 75.36059,-67.32161 5.80489,-10.93999 110.96281,-83.501188 3.34898,-19.647338 0.22326,-16.29836 -3.34898,-9.600404 13.84245,-14.065708 37.73182,19.200808 5.58163,7.144486 75.6869,-51.3509971 15.4053,18.5310121 27.23836,41.973858 32.81998,60.728141 8.03755,26.79182 13.39591,55.14651 7.81428,47.33222 -132.173,41.97386 -20.98693,16.96815 -12.50285,3.79551 h -13.84244 l -10.2702,-3.12571 -8.48408,-5.1351 -7.59102,-6.92122 -3.57224,-5.35837 -18.97754,8.70735 -6.02816,-14.28898 -1.33959,-21.65672 -25.89877,-9.15388 2.00939,-7.59101 -11.16326,-10.2702 -47.33222,49.11834 -11.16327,7.81429 -52.91385,31.03386 -7.81428,9.37714 -43.98325,-14.95877 -25.22896,-9.82367 z"
       id="141" />
    <path
       style="fill:#0000fe;fill-opacity:0.253012"
       d="m 47.555489,663.32092 11.16326,-10.93999 32.15019,20.76366 44.653041,4.35368 68.09589,-13.73082 29.69427,19.42408 11.83306,0.22326 16.96815,12.94938 8.26081,2.90245 8.26082,-0.22326 50.0114,-29.02448 4.68857,2.90245 3.34898,-2.67918 0.66979,-4.91184 111.18608,-65.19344 h 9.37714 l 15.40529,-6.69795 -4.4653,-35.27591 -89.08282,-217.68357 -69.21221,-24.89407 -35.16427,-26.3453 -2.45592,1.78613 -5.80489,-4.24204 -5.91653,5.80489 -3.01408,14.51224 -16.29836,37.62019 -3.57224,-1.45123 -2.67919,10.2702 -41.86222,50.6812 -7.03286,1.22796 -13.95407,23.44285 0.55816,8.03755 -31.14549,44.76467 -6.02816,2.45592 -5.02347,10.38183 -11.49816,8.70734 -19.870603,32.26182 -1.004694,17.97285 -61.174666,90.98057 z"
       id="142" />
    <path
       style="fill:#0000fe;fill-opacity:0.253012"
       d="m 837.19702,556.18426 -9.31447,5.05191 -5.6834,0.15787 -28.25915,17.20809 -1.73659,-1.57873 -2.36809,0.94724 -1.57872,4.42042 -25.41745,12.15617 -44.83574,4.89405 0.15787,1.42085 -5.05192,-0.78936 -5.6834,-6.94639 -23.52298,-0.94723 -0.15787,2.05234 -137.50681,-5.6834 0.47362,-2.84171 -65.51703,3.63107 -7.42,3.94681 -4.89404,-35.83703 -88.88213,-216.91659 7.73575,-9.47234 56.04468,-32.67958 8.84085,-6.78851 46.73021,-48.30893 10.73532,9.94595 -2.05234,7.57788 25.73319,8.99872 1.57873,21.94426 6.31489,14.52425 18.94468,-9.1566 4.89404,7.26213 4.5783,3.94681 8.68298,5.68341 8.68298,2.99957 6.63064,0.94723 10.73532,-0.15787 13.26127,-3.94681 20.68128,-17.05021 131.34979,-41.6783 3.15744,19.89192 5.84128,71.20042 39.31021,167.8183 z"
       id="143" />
  </g>
</svg>
